<?xml version="1.0" encoding="UTF-8"?>
<svg version="1.1" xmlns="http://www.w3.org/2000/svg" width="150" height="65">
<path d="M0 0 C-0.46444489 7.43111831 -6.57488458 12.65849734 -11.6875 17.4375 C-15.93301851 21.54007176 -17.81761152 25.25114568 -19 31 C-10.8540316 28.09072557 -8.00905093 20.85142196 -4.08447266 13.66748047 C-0.7921681 7.69162523 2.11502072 2.73469839 8 -1 C10.203125 -0.62890625 10.203125 -0.62890625 12 0 C10.79861142 8.76397567 3.60733301 14.7411023 -3 20 C-0.40608501 17.86928411 1.63474379 16.46417327 5 16 C5.33 16.33 5.66 16.66 6 17 C5.65529893 22.74501792 4.00426619 26.25132118 1 31 C5.05791593 28.87275341 7.23649644 26.6543961 9.875 22.9375 C14.11886561 17.42368976 14.11886561 17.42368976 17.875 16.3125 C21 16 21 16 23 17 C24.32 17.33 25.64 17.66 27 18 C25.02 21.96 23.04 25.92 21 30 C26.3687142 26.77877148 28.0442838 24.29432835 31.25390625 19.1796875 C33 17 33 17 35.21484375 16.1953125 C35.80394531 16.13085938 36.39304688 16.06640625 37 16 C37.66 16.99 38.32 17.98 39 19 C40.32 18.01 41.64 17.02 43 16 C43.61875 16.33 44.2375 16.66 44.875 17 C46.91018344 18.14193235 46.91018344 18.14193235 49 18 C50.67745682 17.36096883 52.34561387 16.69658363 54 16 C55.1484375 17.671875 55.1484375 17.671875 56 20 C55.1015625 22.578125 55.1015625 22.578125 53.625 25.25 C53.14289063 26.14203125 52.66078125 27.0340625 52.1640625 27.953125 C51.58785156 28.96632813 51.58785156 28.96632813 51 30 C55.12608222 27.86606401 57.15570503 25.7193982 59.625 21.8125 C61.3515625 19.08203125 61.3515625 19.08203125 63 17 C63.99 17 64.98 17 66 17 C64.16508812 21.74018901 62.08058541 26.36413251 60 31 C64.74394706 27.83736863 67.33601075 23.76805557 70.3515625 19.046875 C70.89554687 18.37140625 71.43953125 17.6959375 72 17 C72.99 17 73.98 17 75 17 C73.41037341 21.03520597 71.71767682 25.01811282 70 29 C71.98 26.69 73.96 24.38 76 22 C76.495 23.485 76.495 23.485 77 25 C69 33 69 33 67.51171875 34.33203125 C64.69846192 37.43606398 62.66981717 41.16366154 60.4921875 44.73046875 C58.0471224 48.64089821 55.5362714 51.96646185 52 55 C48.6875 55.3125 48.6875 55.3125 46 55 C44.70158662 51.4293632 44.95268823 50.10842281 46.5 46.5625 C50.51260138 40.21955625 56.49421026 36.4520517 63 33 C62.67 33 62.34 33 62 33 C59.5 32.625 59.5 32.625 57 32 C56.67 31.34 56.34 30.68 56 30 C55.13375 30.7734375 55.13375 30.7734375 54.25 31.5625 C52 33 52 33 49.8125 32.875 C49.214375 32.58625 48.61625 32.2975 48 32 C47 29 47 29 48.21484375 26.30078125 C48.78332031 25.31464844 49.35179688 24.32851563 49.9375 23.3125 C50.50339844 22.31863281 51.06929688 21.32476563 51.65234375 20.30078125 C52.09707031 19.54152344 52.54179688 18.78226563 53 18 C47.89872886 21.6437651 45.32558073 25.45723747 42.39453125 30.98828125 C41.93433594 31.65214844 41.47414062 32.31601562 41 33 C40.01 33 39.02 33 38 33 C38.40779567 29.63568573 39.35702457 27.19312635 41.0625 24.3125 C43.16829444 21.35185753 43.16829444 21.35185753 43 19 C38.97897231 22.66623113 36.24181168 26.54802551 33.4296875 31.20703125 C32.95789063 31.79871094 32.48609375 32.39039063 32 33 C31.01 33 30.02 33 29 33 C30.22527029 28.94718288 31.69880494 25.55639236 34 22 C33.67 21.67 33.34 21.34 33 21 C32.45730469 21.69867187 31.91460937 22.39734375 31.35546875 23.1171875 C30.28232422 24.48230469 30.28232422 24.48230469 29.1875 25.875 C28.12595703 27.23238281 28.12595703 27.23238281 27.04296875 28.6171875 C25 31 25 31 22 33 C19.875 32.75 19.875 32.75 18 32 C17.67 31.34 17.34 30.68 17 30 C16.13375 30.7734375 16.13375 30.7734375 15.25 31.5625 C13 33 13 33 10.875 32.8125 C9 32 9 32 7 30 C6.13375 30.7734375 6.13375 30.7734375 5.25 31.5625 C3 33 3 33 0.75 32.6875 C0.1725 32.460625 -0.405 32.23375 -1 32 C-2.0169313 29.34501768 -2.13022151 28.30844625 -1.00390625 25.640625 C-0.52824219 24.85171875 -0.05257812 24.0628125 0.4375 23.25 C0.91058594 22.45078125 1.38367188 21.6515625 1.87109375 20.828125 C2.42990234 19.92320313 2.42990234 19.92320313 3 19 C-1.78670685 22.64175968 -5.02503487 26.13157965 -7.859375 31.4609375 C-8.42398438 32.22277344 -8.42398438 32.22277344 -9 33 C-9.99 33 -10.98 33 -12 33 C-12.33 32.34 -12.66 31.68 -13 31 C-13.99 31.66 -14.98 32.32 -16 33 C-18.6875 32.625 -18.6875 32.625 -21 32 C-21.40599085 25.61810878 -20.42760847 21.6079845 -17.4375 16 C-17.07833496 15.30447021 -16.71916992 14.60894043 -16.34912109 13.89233398 C-7.71006353 -2.31301906 -7.71006353 -2.31301906 0 0 Z M-4 1 C-5.75406134 3.07220776 -5.75406134 3.07220776 -7.5 5.6875 C-8.1084375 6.55761719 -8.716875 7.42773438 -9.34375 8.32421875 C-10.89730485 10.8340892 -12.00165175 13.22958361 -13 16 C-8.08347771 12.34119271 -4.75176098 8.5156979 -2 3 C-2 2.34 -2 1.68 -2 1 C-2.66 1 -3.32 1 -4 1 Z M8 1 C6.24799436 3.10827786 6.24799436 3.10827786 4.5 5.75 C3.8915625 6.63171875 3.283125 7.5134375 2.65625 8.421875 C1.27314796 10.57481686 0.08156387 12.68545332 -1 15 C2.33434242 13.5968277 4.05526479 12.03010195 6.1875 9.125 C6.69667969 8.44695313 7.20585938 7.76890625 7.73046875 7.0703125 C8.98995557 5.01638014 9.56190327 3.35411015 10 1 C9.34 1 8.68 1 8 1 Z M14 22 C12.06277405 25.27324384 11 27.1851331 11 31 C13.62327183 30.61791476 14.80469622 30.19575173 16.703125 28.29296875 C17.21359375 27.59816406 17.7240625 26.90335938 18.25 26.1875 C18.77078125 25.50042969 19.2915625 24.81335938 19.828125 24.10546875 C21.32422066 21.81908762 21.32422066 21.81908762 21 18 C17.74690049 18 16.32643066 19.84379597 14 22 Z M51 43 C48.45730366 46.11480302 47.09842157 47.86815198 46.75 51.875 C46.8325 52.57625 46.915 53.2775 47 54 C51.37908374 52.65085028 53.16226588 50.97251384 55.6875 47.1875 C56.26886719 46.33542969 56.85023437 45.48335937 57.44921875 44.60546875 C58.92676332 42.12304499 60.01247446 39.70961441 61 37 C57.05675274 37 53.86568267 40.51376543 51 43 Z " fill="#F4F6F5" transform="translate(64,10)"/>
<path d="M0 0 C0.78375 0.04125 1.5675 0.0825 2.375 0.125 C0.5625 2.125 0.5625 2.125 -1.625 4.125 C-2.615 4.125 -3.605 4.125 -4.625 4.125 C-4.89812012 4.82463867 -5.17124023 5.52427734 -5.45263672 6.24511719 C-7.42527274 11.09085117 -9.65794636 15.81296915 -11.890625 20.54345703 C-12.73840374 22.35028546 -13.56855663 24.16535016 -14.3984375 25.98046875 C-19.11170392 35.94660452 -24.50454197 44.68951865 -34.90625 49.3125 C-40.34757362 50.93864269 -46.25915364 51.40506126 -51.6484375 49.35546875 C-54.72764611 47.47039226 -56.28261349 45.39706711 -57.625 42.125 C-58.34927331 37.49301952 -58.07477085 34.00788353 -55.9375 29.8125 C-52.39350315 25.69380096 -49.1400846 22.40335845 -43.50390625 21.95703125 C-42.73949219 21.95058594 -41.97507812 21.94414062 -41.1875 21.9375 C-40.42566406 21.92332031 -39.66382812 21.90914062 -38.87890625 21.89453125 C-36.35623222 22.15248232 -34.77880465 22.80643986 -32.625 24.125 C-30.31787615 27.35497339 -30.08096647 30.23904618 -30.625 34.125 C-32.45047936 37.04983867 -34.49358411 39.55929205 -37.625 41.125 C-39.5 41.2578125 -39.5 41.2578125 -41.625 41.25 C-42.676875 41.25386719 -42.676875 41.25386719 -43.75 41.2578125 C-45.625 41.125 -45.625 41.125 -47.625 40.125 C-47.625 39.465 -47.625 38.805 -47.625 38.125 C-46.779375 38.351875 -45.93375 38.57875 -45.0625 38.8125 C-40.56695674 39.22118575 -38.58536761 38.2216652 -34.625 36.125 C-33.11837903 33.11175805 -33.44729627 30.44213623 -33.625 27.125 C-36.3184876 24.4315124 -37.83148064 24.33575108 -41.625 24.125 C-45.78224252 25.01241138 -48.85545222 26.4541122 -52.0625 29.25 C-54.19269313 33.16955536 -54.81876497 36.67647914 -54.625 41.125 C-53.3176807 44.73935336 -52.34800626 45.75508982 -48.9375 47.5 C-43.35929253 48.55249198 -38.7190298 47.9782725 -33.6875 45.4375 C-24.65578905 39.24583879 -19.56774749 26.46613574 -14.71899414 16.98730469 C-12.58776602 12.83079102 -10.29256933 8.96150421 -7.625 5.125 C-14.58422564 7.58686045 -20.50327855 9.86810711 -25 16 C-26.22727567 20.17273726 -25.98730612 24.03808163 -24.625 28.125 C-23.965 28.125 -23.305 28.125 -22.625 28.125 C-22.625 28.785 -22.625 29.445 -22.625 30.125 C-25.78615776 28.75516497 -26.6177092 28.1359362 -28.625 25.125 C-29.37498696 20.54659126 -29.04586848 16.98292422 -27 12.8125 C-22.53424437 7.75914495 -17.83774552 5.63631216 -11.375 4 C-7.36215786 2.97562469 -3.71164642 0.17674507 0 0 Z " fill="#EDEFEE" transform="translate(57.625,-0.125)"/>
<path d="M0 0 C0 0.99 0 1.98 0 3 C-0.9075 3.598125 -1.815 4.19625 -2.75 4.8125 C-7.09292022 7.73561938 -9.42332799 10.78942396 -10.75 15.875 C-10.8325 16.57625 -10.915 17.2775 -11 18 C-5.53720375 14.95099744 -2.98771902 11.44663822 0 6 C0.66 6.33 1.32 6.66 2 7 C1.10899045 12.13776938 -2.11181091 15.68081419 -6 19 C-9.4375 19.5 -9.4375 19.5 -12 19 C-13.29841338 15.4293632 -13.04731177 14.10842281 -11.5 10.5625 C-8.71277175 6.10878214 -4.71099203 2.35549601 0 0 Z " fill="#F1F1F1" transform="translate(122,46)"/>
<path d="M0 0 C1.11601341 2.77371754 1.08090856 3.80258312 -0.07421875 6.62109375 C-6.04545455 17.04545455 -6.04545455 17.04545455 -9 20 C-9.99 20 -10.98 20 -12 20 C-11.31341781 15.85970136 -9.18698547 12.45945502 -7.125 8.875 C-6.77308594 8.24207031 -6.42117187 7.60914063 -6.05859375 6.95703125 C-4.26178157 3.81094003 -3.06291655 2.04194437 0 0 Z " fill="#F8F8F8" transform="translate(42,22)"/>
<path d="M0 0 C-0.54013223 4.12398256 -1.77908182 6.46177045 -4.375 9.6875 C-4.98085937 10.45449219 -5.58671875 11.22148437 -6.2109375 12.01171875 C-8 14 -8 14 -11 16 C-9.53841581 11.48237613 -7.05265255 8.58686674 -4 5 C-2.72147713 2.78412652 -2.72147713 2.78412652 -2 1 C-6.00972202 4.67557852 -8.45335415 8.18966896 -11 13 C-11.99 12.67 -12.98 12.34 -14 12 C-12.51082643 7.08572721 -9.55813338 3.59680874 -6 0 C-3.50907189 -1.24546405 -2.58919267 -0.7767578 0 0 Z " fill="#ECEDEC" transform="translate(76,10)"/>
<path d="M0 0 C0 3.0915187 -0.44142746 4.29234143 -1.75 7.01171875 C-2.29140625 8.14770508 -2.29140625 8.14770508 -2.84375 9.30664062 C-3.2253125 10.09232422 -3.606875 10.87800781 -4 11.6875 C-4.57234375 12.88342773 -4.57234375 12.88342773 -5.15625 14.10351562 C-6.09902288 16.07155402 -7.04709568 18.03685236 -8 20 C-8.99 20 -9.98 20 -11 20 C-11.33 19.34 -11.66 18.68 -12 18 C-10.84740834 15.62333813 -9.64698374 13.39616643 -8.3125 11.125 C-7.95994141 10.49980469 -7.60738281 9.87460938 -7.24414062 9.23046875 C-5.18303634 5.66592642 -3.09478354 2.78041501 0 0 Z " fill="#F1F2F1" transform="translate(52,4)"/>
<path d="M0 0 C0.78375 0.04125 1.5675 0.0825 2.375 0.125 C-1.40966593 4.49192223 -5.03956493 5.75565213 -10.6875 6.5625 C-13.71252642 6.9655204 -13.71252642 6.9655204 -16.3125 8.75 C-17.075625 9.20375 -17.83875 9.6575 -18.625 10.125 C-19.615 9.795 -20.605 9.465 -21.625 9.125 C-18.93724037 5.6438058 -15.70341286 5.1202099 -11.5625 4.0625 C-7.51223744 3.02172046 -3.74497075 0.17833194 0 0 Z " fill="#EAEAEA" transform="translate(57.625,-0.125)"/>
<path d="M0 0 C0.66 0 1.32 0 2 0 C2.65659814 5.25278515 1.07349844 8.1524079 -1.61328125 12.4609375 C-2.07089844 12.96882813 -2.52851562 13.47671875 -3 14 C-3.99 14 -4.98 14 -6 14 C-4.50829734 9.0276578 -2.39542583 4.58154261 0 0 Z " fill="#F8F9F9" transform="translate(99,29)"/>
<path d="M0 0 C1.4540625 0.0309375 1.4540625 0.0309375 2.9375 0.0625 C1.6175 2.3725 0.2975 4.6825 -1.0625 7.0625 C-2.0525 7.0625 -3.0425 7.0625 -4.0625 7.0625 C-4.3925 6.4025 -4.7225 5.7425 -5.0625 5.0625 C-6.7125 5.7225 -8.3625 6.3825 -10.0625 7.0625 C-10.0625 6.4025 -10.0625 5.7425 -10.0625 5.0625 C-8.09527992 3.68126037 -6.09381672 2.34761874 -4.0625 1.0625 C-3.0625 0.0625 -3.0625 0.0625 0 0 Z " fill="#ECECEC" transform="translate(56.0625,35.9375)"/>
<path d="M0 0 C0 0.99 0 1.98 0 3 C-0.9075 3.598125 -1.815 4.19625 -2.75 4.8125 C-7.71702711 8.15569133 -10.03515732 12.43294575 -12 18 C-12.75 16.4375 -12.75 16.4375 -13 14 C-10.27338993 7.86512735 -6.08160682 3.04080341 0 0 Z " fill="#E9EAEA" transform="translate(122,46)"/>
<path d="M0 0 C-0.33153884 5.30462144 -3.46112316 9.2456412 -7 13 C-9.19921875 14.23828125 -9.19921875 14.23828125 -11 15 C-10.60167969 14.49210937 -10.20335937 13.98421875 -9.79296875 13.4609375 C-6.71433825 9.46096502 -4.08404386 5.63120857 -2 1 C-2.99 1.33 -3.98 1.66 -5 2 C-5.33 1.34 -5.66 0.68 -6 0 C-3.50907189 -1.24546405 -2.58919267 -0.7767578 0 0 Z " fill="#E2E4E3" transform="translate(64,10)"/>
<path d="M0 0 C-1.33213058 3.5865054 -2.76916059 6.87682483 -5 10 C-5.99 10 -6.98 10 -8 10 C-7.61508669 5.50934475 -5.14531178 0 0 0 Z " fill="#F9F9F9" transform="translate(110,33)"/>
<path d="M0 0 C1.2065625 0.0309375 1.2065625 0.0309375 2.4375 0.0625 C-0.58137244 3.54581435 -3.13159529 4.85407144 -7.5625 6.0625 C-7.8925 5.0725 -8.2225 4.0825 -8.5625 3.0625 C-7.758125 2.753125 -6.95375 2.44375 -6.125 2.125 C-1.0625 0.02591463 -1.0625 0.02591463 0 0 Z " fill="#E1E4E2" transform="translate(57.5625,-0.0625)"/>
<path d="M0 0 C0.99 0 1.98 0 3 0 C2.25 2.4375 2.25 2.4375 1 5 C-1.125 5.8125 -1.125 5.8125 -3 6 C-1.125 1.125 -1.125 1.125 0 0 Z " fill="#F6F6F6" transform="translate(127,27)"/>
<path d="M0 0 C0.33 0 0.66 0 1 0 C1.66 2.64 2.32 5.28 3 8 C3.66 8 4.32 8 5 8 C5 8.66 5 9.32 5 10 C2.13522966 8.94958421 1.16086774 8.29875437 -0.3125 5.5625 C-1 3 -1 3 0 0 Z " fill="#E5E7E7" transform="translate(30,20)"/>
<path d="M0 0 C-2.76223278 2.76223278 -5.20706617 2.57856291 -9 3 C-9 2.34 -9 1.68 -9 1 C-3.375 -1.125 -3.375 -1.125 0 0 Z " fill="#E9EAEA" transform="translate(25,47)"/>
<path d="M0 0 C0.66 0 1.32 0 2 0 C1.5020163 3.73487777 1.12508244 5.81237635 -1 9 C-1.125 2.25 -1.125 2.25 0 0 Z " fill="#F6F8F8" transform="translate(30,14)"/>
<path d="M0 0 C0.99 0.99 1.98 1.98 3 3 C2.01 3.66 1.02 4.32 0 5 C-0.66 4.01 -1.32 3.02 -2 2 C-1.34 1.34 -0.68 0.68 0 0 Z " fill="#CFD1D0" transform="translate(144,57)"/>
</svg>
