<?xml version="1.0" encoding="UTF-8"?>
<svg version="1.1" xmlns="http://www.w3.org/2000/svg" width="240" height="129">
<path d="M0 0 C2.475 0.99 2.475 0.99 5 2 C5 2.99 5 3.98 5 5 C6.12277344 4.96519531 7.24554688 4.93039063 8.40234375 4.89453125 C16.50466618 4.71908192 23.48130263 4.57041874 31 8 C31.99 8.99 31.99 8.99 33 10 C32.625 12.125 32.625 12.125 32 14 C31.505 12.515 31.505 12.515 31 11 C22.04395567 8.53543743 13.19822505 8.8079257 4 9 C-1.59572994 19.1922224 -4.84414531 29.29920812 -4 41 C-3.34 39.02 -2.68 37.04 -2 35 C-0.35 35 1.3 35 3 35 C3.13535156 34.45472656 3.27070312 33.90945312 3.41015625 33.34765625 C5.23855179 26.94279763 8.1662791 21.65700422 13 17 C15.09765625 16.1875 15.09765625 16.1875 17 16 C17.66 16.33 18.32 16.66 19 17 C19.66 15.68 20.32 14.36 21 13 C22.65 13.33 24.3 13.66 26 14 C26 15.32 26 16.64 26 18 C26.94875 18.2475 27.8975 18.495 28.875 18.75 C32 20 32 20 33.375 22.125 C33.684375 23.053125 33.684375 23.053125 34 24 C33.505 24.495 33.505 24.495 33 25 C32.86776481 26.56037521 32.76931471 28.12367031 32.6875 29.6875 C32.2321648 34.42434525 31.47569148 37.52430852 28 41 C24.4375 41.6875 24.4375 41.6875 21 41 C19.0625 38.5 19.0625 38.5 18 36 C14.37 36.33 10.74 36.66 7 37 C6.7525 38.19625 6.505 39.3925 6.25 40.625 C5.27780188 44.94128383 4.20333163 49.22515964 3.0625 53.5 C2.74410156 54.7065625 2.42570312 55.913125 2.09765625 57.15625 C1.73542969 58.0946875 1.37320313 59.033125 1 60 C0.01 60.33 -0.98 60.66 -2 61 C-2.99 60.34 -3.98 59.68 -5 59 C-4.39891424 53.34979382 -2.92471317 48.33835539 -1 43 C-2.32 43.66 -3.64 44.32 -5 45 C-6.875 44.0625 -6.875 44.0625 -9 42 C-9.95351561 39.04514944 -10.51196718 36.0630481 -11 33 C-11.67095703 33.86625 -11.67095703 33.86625 -12.35546875 34.75 C-13.26232422 35.86375 -13.26232422 35.86375 -14.1875 37 C-14.77917969 37.7425 -15.37085937 38.485 -15.98046875 39.25 C-18 41 -18 41 -20.61328125 41.375 C-23 41 -23 41 -25 39 C-24.68789339 34.42243641 -23.18733261 30.99425954 -21 27 C-23.97 27.33 -26.94 27.66 -30 28 C-30.26554687 28.68707031 -30.53109375 29.37414062 -30.8046875 30.08203125 C-31.15789062 30.98308594 -31.51109375 31.88414063 -31.875 32.8125 C-32.22304687 33.70582031 -32.57109375 34.59914062 -32.9296875 35.51953125 C-34 38 -34 38 -36 41 C-38.375 41.875 -38.375 41.875 -41 42 C-43.75964022 40.62017989 -44.76432664 39.70211023 -45.75 36.765625 C-46.07091112 33.21554575 -45.1688807 31.12864023 -43.75 27.875 C-43.31171875 26.84117188 -42.8734375 25.80734375 -42.421875 24.7421875 C-41.13838184 22.26687927 -40.18149128 20.69926689 -38 19 C-35.5 18.625 -35.5 18.625 -33 19 C-31.1875 20.375 -31.1875 20.375 -30 22 C-30 22.66 -30 23.32 -30 24 C-29.34 23.67 -28.68 23.34 -28 23 C-28.495 22.608125 -28.99 22.21625 -29.5 21.8125 C-31.45593143 19.44908285 -31.24207973 17.98564997 -31 15 C-31.804375 15.020625 -32.60875 15.04125 -33.4375 15.0625 C-36 15 -36 15 -37 14 C-37.04063832 12.33382885 -37.042721 10.66611905 -37 9 C-36.34 9 -35.68 9 -35 9 C-35 9.66 -35 10.32 -35 11 C-33.78441406 10.53980469 -32.56882812 10.07960938 -31.31640625 9.60546875 C-25.29926425 7.59975475 -19.22110156 6.97603092 -12.9375 6.3125 C-11.20983398 6.11817383 -11.20983398 6.11817383 -9.44726562 5.91992188 C-6.63235444 5.60455838 -3.81677901 5.29813441 -1 5 C-0.67 3.35 -0.34 1.7 0 0 Z M-17 11 C-19.57822295 14.77788587 -21.34202754 18.74778827 -23 23 C-22.20207031 23.40863281 -21.40414062 23.81726562 -20.58203125 24.23828125 C-18 26 -18 26 -17.07421875 28.04296875 C-16.71614583 30.02864583 -16.35807292 32.01432292 -16 34 C-9.53279941 29.45548067 -7.63017907 23.35111721 -5.3125 16.125 C-5.08755859 15.43664062 -4.86261719 14.74828125 -4.63085938 14.0390625 C-4.08307032 12.36073008 -3.54094107 10.68055209 -3 9 C-10.25617787 8.75581187 -10.25617787 8.75581187 -17 11 Z M-26 14 C-26.33 15.98 -26.66 17.96 -27 20 C-25.68 20 -24.36 20 -23 20 C-22.67 17.69 -22.34 15.38 -22 13 C-23.36893239 12.94729537 -23.36893239 12.94729537 -26 14 Z M22 18 C21.03760548 19.24687592 20.08025991 20.49764969 19.125 21.75 C18.59132813 22.44609375 18.05765625 23.1421875 17.5078125 23.859375 C14.65001949 27.71176132 14.65001949 27.71176132 14.375 32.25 C14.58125 32.8275 14.7875 33.405 15 34 C16.91653151 34.00480695 16.91653151 34.00480695 19 33 C20.80943489 30.01159356 20.80943489 30.01159356 22.25 26.4375 C22.77078125 25.23996094 23.2915625 24.04242188 23.828125 22.80859375 C24.40820312 21.41833984 24.40820312 21.41833984 25 20 C24.01 19.34 23.02 18.68 22 18 Z M-36 26 C-36.67354499 27.43429001 -37.33859701 28.87257057 -38 30.3125 C-38.37125 31.11300781 -38.7425 31.91351563 -39.125 32.73828125 C-40.18040667 35.06213959 -40.18040667 35.06213959 -40 38 C-38.00136244 37.42055068 -38.00136244 37.42055068 -36 36 C-34.42687589 32.38181456 -34 29.97906647 -34 26 C-34.66 26 -35.32 26 -36 26 Z M28 26 C25.58314288 30.22949995 24.65166856 33.12335991 25 38 C29.09709868 34.18639898 29.09709868 34.18639898 30.0625 28.875 C30.041875 27.92625 30.02125 26.9775 30 26 C29.34 26 28.68 26 28 26 Z M11 29 C10.34 30.65 9.68 32.3 9 34 C9.99 34 10.98 34 12 34 C12 32.35 12 30.7 12 29 C11.67 29 11.34 29 11 29 Z M0 38 C1 41 1 41 1 41 Z " fill="#000000" transform="translate(124,27)"/>
<path d="M0 0 C3.00519616 2.56693839 4.69546542 4.39108724 5.44140625 8.33203125 C5.77847185 15.41040876 3.99435878 20.62617179 -0.6953125 25.91015625 C-5.42704773 30.42158802 -10.62891826 33.4284665 -17 35 C-20.625 34.75 -20.625 34.75 -23 34 C-25.10396411 39.93317878 -26.75971762 45.82777121 -28 52 C-29.32 52 -30.64 52 -32 52 C-32.66 51.34 -33.32 50.68 -34 50 C-33.75197579 43.17933412 -31.49103477 37.30289727 -29 31 C-29.49113281 30.57074219 -29.98226562 30.14148437 -30.48828125 29.69921875 C-32 28 -32 28 -32.1875 24.8125 C-32.125625 23.884375 -32.06375 22.95625 -32 22 C-31.01 21.67 -30.02 21.34 -29 21 C-29 22.98 -29 24.96 -29 27 C-28.34 27 -27.68 27 -27 27 C-25.50108488 24.67068591 -24.11320015 22.34440908 -22.75 19.9375 C-16.02189225 8.49729761 -16.02189225 8.49729761 -12 5 C-8.125 5.0625 -8.125 5.0625 -5 6 C-5.1875 8.3125 -5.1875 8.3125 -6 11 C-6.7425 11.3815625 -7.485 11.763125 -8.25 12.15625 C-12.13759111 14.76270313 -13.67124751 18.10807554 -15.8125 22.1875 C-16.21919922 22.93708984 -16.62589844 23.68667969 -17.04492188 24.45898438 C-18.04152487 26.29976872 -19.02235499 28.14907732 -20 30 C-8.29616732 24.85917629 -8.29616732 24.85917629 -0.0625 15.5625 C1.09553344 11.67968199 1.53925312 9.76261875 0 6 C-5.79572651 2.13618233 -12.22828814 2.25417942 -19 3 C-29.9212909 5.46941705 -37.39348287 11.92893139 -44.78515625 20.0078125 C-46.29594248 22.4853076 -46.23184803 24.14876255 -46 27 C-47.32 27 -48.64 27 -50 27 C-52 25 -52 25 -52.15234375 23.01171875 C-51.77484306 18.92784765 -51.47205478 16.59701045 -48.875 13.3125 C-47.92625 12.549375 -46.9775 11.78625 -46 11 C-45.49339844 10.51917969 -44.98679687 10.03835937 -44.46484375 9.54296875 C-33.55642604 -0.64337875 -13.98405504 -8.15478154 0 0 Z " fill="#000000" transform="translate(73,22)"/>
<path d="M0 0 C0.68989014 0.16822266 1.37978027 0.33644531 2.09057617 0.50976562 C5.34431884 1.05801731 8.2551984 0.9986935 11.55078125 0.84375 C12.80697266 0.79089844 14.06316406 0.73804687 15.35742188 0.68359375 C17.98244713 0.56174073 20.60744747 0.43934974 23.23242188 0.31640625 C34.0409661 -0.13694445 34.0409661 -0.13694445 38.3515625 0.5 C42.69806499 1.09566629 46.70683733 0.84727082 51.0625 0.5 C56.58825627 0.06166997 61.53092335 0.0122252 67 1 C67 1.66 67 2.32 67 3 C67.99 2.835 68.98 2.67 70 2.5 C75.06785338 1.77896395 80.08852526 1.36284175 85 3 C87.29517309 2.94785762 89.58892071 2.82295841 91.87890625 2.66015625 C93.28067565 2.56560431 94.68244993 2.47112465 96.08422852 2.37670898 C96.81602325 2.32521698 97.54781799 2.27372498 98.30178833 2.22067261 C108.9066665 1.47869332 119.47306762 0.80532336 130.10913086 0.96899414 C137.43423431 1.06921434 144.70095968 0.55687501 152 0 C152.33 0.66 152.66 1.32 153 2 C141.57079212 4.37873685 129.98250458 4.93349461 118.35546875 5.6171875 C116.70252839 5.71587442 116.70252839 5.71587442 115.0161953 5.81655502 C88.66931378 7.34992733 62.35412295 7.32017694 35.97259521 7.14770508 C26.15287682 7.08678932 16.3330197 7.05449814 6.51317406 7.02193832 C3.13187856 7.00814336 -0.24929464 6.98659079 -3.63053894 6.96365356 C-5.6881808 6.95363883 -7.74582339 6.94377327 -9.8034668 6.93408203 C-10.72316254 6.92577362 -11.64285828 6.91746521 -12.59042358 6.90890503 C-17.83193144 6.89091915 -22.8089484 7.28333689 -28 8 C-29.49476188 8.07358957 -30.99171709 8.1184483 -32.48828125 8.11352539 C-33.26848633 8.11344986 -34.04869141 8.11337433 -34.85253906 8.11329651 C-35.66432617 8.10813522 -36.47611328 8.10297394 -37.3125 8.09765625 C-38.16682617 8.0962413 -39.02115234 8.09482635 -39.90136719 8.09336853 C-42.60094873 8.08781962 -45.30044399 8.07527697 -48 8.0625 C-49.84244671 8.05747839 -51.68489473 8.05291664 -53.52734375 8.04882812 C-58.01826186 8.03786699 -62.50911636 8.02063825 -67 8 C-57.954696 1.96979733 -41.55123759 3.45170704 -30.875 2.9375 C-27.78893214 2.78245523 -24.70304234 2.62406649 -21.6171875 2.46484375 C-20.88143494 2.42741058 -20.14568237 2.38997742 -19.38763428 2.35140991 C-12.91525325 2.01432748 -6.45868683 1.54166417 0 1 C0 0.67 0 0.34 0 0 Z " fill="#000000" transform="translate(67,94)"/>
<path d="M0 0 C1.66611905 -0.042721 3.33382885 -0.04063832 5 0 C5.33 0.33 5.66 0.66 6 1 C5.62632843 6.41484078 3.99629078 10.49557968 1.4375 15.1875 C-5.66522213 28.81993523 -11.24759607 43.08913174 -15 58 C-14.34 58 -13.68 58 -13 58 C-13.33 59.32 -13.66 60.64 -14 62 C-18.875 61.125 -18.875 61.125 -20 60 C-20.39367846 53.66535561 -19.34830907 48.37073847 -17.5625 42.3125 C-17.30025635 41.40910889 -17.0380127 40.50571777 -16.76782227 39.57495117 C-12.60487188 25.80043048 -6.51412151 12.79929056 0 0 Z " fill="#000000" transform="translate(175,24)"/>
<path d="M0 0 C2.97 0.66 5.94 1.32 9 2 C10.64006753 8.56027011 9.45338987 15.30084739 6.25 21.25 C4 23 4 23 0.9375 23.5 C-2 23 -2 23 -3.8125 21.6875 C-5 20 -5 20 -6 17 C-6.53109375 17.49371094 -7.0621875 17.98742187 -7.609375 18.49609375 C-8.66898438 19.45708984 -8.66898438 19.45708984 -9.75 20.4375 C-10.44609375 21.07558594 -11.1421875 21.71367188 -11.859375 22.37109375 C-14.00799556 24.00608421 -15.31748329 24.78021397 -18 25 C-20 23 -20 23 -20.046875 21.1171875 C-19.3633631 15.95487397 -18.37066046 11.02575501 -17 6 C-15.35 6 -13.7 6 -12 6 C-10.76852708 9.69441875 -11.55701009 10.51984786 -13 14 C-13 15.32 -13 16.64 -13 18 C-7.21943304 13.93631083 -2.84922913 10.56561496 0 4 C0 2.68 0 1.36 0 0 Z M5 8 C1.38406443 13.54702838 1.38406443 13.54702838 1 20 C4.34615592 19.26856072 4.34615592 19.26856072 5.75 15.6875 C7.13894668 11.73469244 7.13894668 11.73469244 6 8 C5.67 8 5.34 8 5 8 Z " fill="#000000" transform="translate(193,45)"/>
<path d="M0 0 C3.875 0.875 3.875 0.875 5 2 C5.33 1.34 5.66 0.68 6 0 C7.98 0 9.96 0 12 0 C12 0.66 12 1.32 12 2 C12.66 2 13.32 2 14 2 C14 1.34 14 0.68 14 0 C14.99 0 15.98 0 17 0 C16.690625 0.763125 16.38125 1.52625 16.0625 2.3125 C15.32106407 4.18789677 14.63771783 6.08684652 14 8 C13.34 8 12.68 8 12 8 C11.34 6.68 10.68 5.36 10 4 C9.67 5.32 9.34 6.64 9 8 C6 8 3 8 0 8 C0 5.36 0 2.72 0 0 Z " fill="#000000" transform="translate(84,16)"/>
<path d="M0 0 C2.97 0.495 2.97 0.495 6 1 C6 1.99 6 2.98 6 4 C5.01 4.33 4.02 4.66 3 5 C2.26676204 7.01508358 2.26676204 7.01508358 2 9 C1.34 9 0.68 9 0 9 C0 6.03 0 3.06 0 0 Z " fill="#000000" transform="translate(179,40)"/>
<path d="M0 0 C0.99 0 1.98 0 3 0 C3 0.66 3 1.32 3 2 C1.35 2 -0.3 2 -2 2 C-1.34 1.34 -0.68 0.68 0 0 Z " fill="#000000" transform="translate(231,93)"/>
<path d="M0 0 C1.32 0 2.64 0 4 0 C4 0.66 4 1.32 4 2 C2.68 1.67 1.36 1.34 0 1 C0 0.67 0 0.34 0 0 Z " fill="#000000" transform="translate(236,93)"/>
<path d="M0 0 C3 1 3 1 3 1 Z " fill="#000000" transform="translate(225,94)"/>
</svg>
