<?xml version="1.0" encoding="UTF-8"?>
<svg version="1.1" xmlns="http://www.w3.org/2000/svg" width="260" height="112">
<path d="M0 0 C0.99 0.33 1.98 0.66 3 1 C2.66216339 10.070913 2.10046402 23.32232259 -4.13671875 30.4375 C-4.75160156 30.953125 -5.36648437 31.46875 -6 32 C-5.73445313 30.94683594 -5.46890625 29.89367187 -5.1953125 28.80859375 C-2.83334265 19.23457892 -1.08466664 9.80481558 0 0 Z " fill="#FFFFFF" transform="translate(33,33)"/>
<path d="M0 0 C3.125 0.9375 3.125 0.9375 5.4375 3.4375 C9.10211842 6.84644737 12.27009315 6.82115147 17.125 6.9375 C16.135 8.4225 16.135 8.4225 15.125 9.9375 C8.35556865 9.77526962 5.97709035 8.78959035 1.125 3.9375 C-2.61860341 3.99478998 -2.61860341 3.99478998 -5.875 4.9375 C-5.875 3.9475 -5.875 2.9575 -5.875 1.9375 C-2.875 -0.0625 -2.875 -0.0625 0 0 Z " fill="#FFFFFF" transform="translate(237.875,58.0625)"/>
<path d="M0 0 C-1.07860595 2.74554241 -1.96475355 3.97330169 -4.3515625 5.78125 C-7.24455525 8.20487815 -8.78065684 10.51050916 -10.6875 13.75 C-11.73938853 15.53191317 -12.83122643 17.29247186 -14 19 C-14.66 19 -15.32 19 -16 19 C-15.83452729 12.5465644 -12.11763234 8.59744119 -8 4 C-3.70731707 0 -3.70731707 0 0 0 Z " fill="#FFFFFF" transform="translate(23,16)"/>
<path d="M0 0 C2.0625 0.4375 2.0625 0.4375 4 1 C3.40072174 4.35595828 2.15377564 6.37801226 0 9 C-1.65 8.67 -3.3 8.34 -5 8 C-1.125 1.125 -1.125 1.125 0 0 Z " fill="#FFFFFF" transform="translate(50,39)"/>
<path d="M0 0 C0 0.99 0 1.98 0 3 C-2.31 3.66 -4.62 4.32 -7 5 C-7.66 4.34 -8.32 3.68 -9 3 C-5.92807025 0.26939578 -4.09590633 -0.34132553 0 0 Z " fill="#FFFFFF" transform="translate(218,56)"/>
</svg>
