<?xml version="1.0" encoding="UTF-8"?>
<svg version="1.1" xmlns="http://www.w3.org/2000/svg" width="1024" height="550">
<path d="M0 0 C6.12358268 0.61235827 10.36963613 2.13105725 15.375 5.6875 C17.85040847 9.21019666 17.33820303 11.73864182 17 16 C16.67 16.99 16.34 17.98 16 19 C17.04929687 18.83886719 18.09859375 18.67773438 19.1796875 18.51171875 C52.22401447 14.42279086 102.23397373 14.62795831 129.9375 35.5625 C134.05715854 38.79990861 136.60541539 41.39347696 137.875 46.5625 C138 50 138 50 136.6875 51.9375 C135 53 135 53 133 53 C132.61521484 51.73542969 132.61521484 51.73542969 132.22265625 50.4453125 C130.31756661 44.10721001 130.31756661 44.10721001 125.734375 39.828125 C123.34042044 39.33249836 123.34042044 39.33249836 120.98828125 39.2109375 C119 39 119 39 117 37 C114.78239347 36.42115656 114.78239347 36.42115656 112.1875 36.0625 C106.77313675 35.16603513 101.47305155 33.97650622 96.140625 32.68359375 C89.17144265 31.16666973 82.33017622 30.74088212 75.21875 30.47265625 C74.17432739 30.43133072 73.12990479 30.39000519 72.05383301 30.34742737 C59.87268985 29.88702248 47.68741763 29.65660165 35.5 29.4375 C33.20051613 29.39412884 30.90103692 29.35051003 28.6015625 29.30664062 C23.06775842 29.20158998 17.53390602 29.09952824 12 29 C11.70794678 29.90266602 11.41589355 30.80533203 11.11499023 31.73535156 C9.69811176 35.88391714 7.91683198 39.7827503 6.0625 43.75 C5.71509766 44.51699219 5.36769531 45.28398437 5.00976562 46.07421875 C4.66751953 46.80769531 4.32527344 47.54117188 3.97265625 48.296875 C3.66593994 48.96041992 3.35922363 49.62396484 3.04321289 50.30761719 C2 52 2 52 -1 54 C-1.36760731 56.32817964 -1.70241581 58.6618385 -2 61 C-2.99 61.495 -2.99 61.495 -4 62 C-4.67258667 64.33163378 -5.33847444 66.6652039 -6 69 C-6.48839355 69.78117187 -6.97678711 70.56234375 -7.47998047 71.3671875 C-9.14413849 74.24966102 -9.74108758 76.61820719 -10.3828125 79.875 C-11.87272235 86.76462213 -13.97079473 93.34911481 -16.21588135 100.02536011 C-18.20869528 105.99559001 -20.09642469 112.00087766 -22 118 C-22.31388672 118.97565918 -22.62777344 119.95131836 -22.95117188 120.95654297 C-26.59539547 132.59926933 -27.4744059 143.92795953 -27.5625 156.0625 C-27.57162415 156.77638885 -27.58074829 157.49027771 -27.59014893 158.22579956 C-27.60730395 160.26745362 -27.59310474 162.30615099 -27.56640625 164.34765625 C-27.55552979 165.53367432 -27.54465332 166.71969238 -27.53344727 167.94165039 C-26.90420104 171.54923274 -25.80639806 172.73695576 -23 175 C-17.05813574 173.3023245 -14.41717634 169.15019859 -11.1875 164.25 C-9.76805671 160.36520783 -9.92793728 157.3493479 -10.28515625 153.26953125 C-10 151 -10 151 -8.33203125 149.2734375 C-2.67478997 146.18422367 4.64775271 145.65663528 11 146 C11.16363037 145.41299316 11.32726074 144.82598633 11.49584961 144.22119141 C19.12463292 117.75229229 34.92170855 83.34701962 60.01953125 68.83203125 C63.12209755 67.52858624 65.67368885 67.71324904 69 68 C71.02295852 68.9527008 73.02738352 69.94701177 75 71 C76.41701589 69.2711195 77.83359686 67.54188254 79.25 65.8125 C80.03890625 64.84957031 80.8278125 63.88664062 81.640625 62.89453125 C83.15490157 61.03678466 84.64676179 59.16040738 86.109375 57.26171875 C88 55 88 55 91 53 C96.32539657 52.78698414 101.66301122 53.85568313 106 57 C106.875 60.1875 106.875 60.1875 107 63 C104.63131711 64.98969363 102.66504441 66.12882907 99.75 67.25 C81.63468632 74.84922057 67.39654057 100.92202621 60.37109375 117.88671875 C57.1932647 125.82324025 54.9392365 133.44970908 54 142 C54.55719727 141.83701416 55.11439453 141.67402832 55.68847656 141.50610352 C58.19510339 140.9572825 60.41980924 140.88670615 62.984375 140.90234375 C63.91894531 140.90556641 64.85351562 140.90878906 65.81640625 140.91210938 C66.78449219 140.92048828 67.75257813 140.92886719 68.75 140.9375 C69.73355469 140.94201172 70.71710938 140.94652344 71.73046875 140.95117188 C74.15370791 140.96293517 76.57682273 140.97937316 79 141 C79.14808105 140.37125977 79.29616211 139.74251953 79.44873047 139.09472656 C81.75057236 129.56522347 85.48015346 120.51155373 89.06152344 111.40820312 C89.84788836 109.39033019 90.60347563 107.36049973 91.3515625 105.328125 C94.57700865 96.85858613 99.52028005 90.29860977 106 84 C105.030625 83.278125 104.06125 82.55625 103.0625 81.8125 C100.70086494 79.86762407 100.06587669 79.2117465 99.125 76.1875 C99.063125 75.1046875 99.063125 75.1046875 99 74 C102.4326021 74.42907526 104.904047 75.44878138 107.875 77.125 C110.96922146 78.75262951 111.65588133 79.059559 115.25 78.4375 C122.11174359 77.63696325 129.14496623 81.27954283 134.5625 85.4375 C137.1209796 88.12718368 138.57175588 90.5880835 140 94 C137.74259377 96.33524782 135.7194239 98.18705073 133 100 C133.495 101.051875 133.99 102.10375 134.5 103.1875 C139.7543007 117.5676914 133.86821315 135.03816477 127.8449707 148.37963867 C123.51247173 157.4480033 117.846841 167.28108605 108 171 C101.32633994 172.04122215 94.61698064 171.9463744 88.7109375 168.3828125 C82.45582698 163.32731222 79.50947717 156.78572437 78 149 C78 147.68 78 146.36 78 145 C76.2823645 145.46297485 76.2823645 145.46297485 74.5300293 145.93530273 C70.21091106 147.01269632 65.94242608 147.58688803 61.51953125 148.03515625 C60.74365158 148.11873886 59.96777191 148.20232147 59.16838074 148.28843689 C56.71694919 148.5517488 54.26481703 148.80757888 51.8125 149.0625 C49.34961735 149.32216957 46.88692791 149.58347423 44.42448425 149.84727478 C42.89995609 150.01022943 41.37515438 150.17065147 39.85005188 150.32814026 C37.8981311 150.53484719 35.94888257 150.766378 34 151 C32.59983643 151.07021362 32.59983643 151.07021362 31.17138672 151.1418457 C28.6833254 151.85649029 28.6833254 151.85649029 27.4543457 154.84814453 C27.03241943 156.09708496 26.61049316 157.34602539 26.17578125 158.6328125 C25.94344284 159.30287323 25.71110443 159.97293396 25.47172546 160.66329956 C24.73239844 162.81108455 24.02248995 164.96736194 23.3125 167.125 C22.82412448 168.55532354 22.33390971 169.9850205 21.84179688 171.4140625 C20.10718044 176.48888711 18.40989357 181.56074466 16.94042969 186.72045898 C16.23222607 189.19016282 15.47757161 191.52299944 14.52734375 193.90234375 C12.93571898 198.05775329 11.72096994 202.26898571 10.5625 206.5625 C10.34932129 207.33972412 10.13614258 208.11694824 9.91650391 208.91772461 C8.89068808 212.66948728 7.88433046 216.42608319 6.89453125 220.1875 C6.72348877 220.8374292 6.55244629 221.4873584 6.3762207 222.15698242 C6.21081787 222.78580322 6.04541504 223.41462402 5.875 224.0625 C4.83303834 228.01607226 3.73917627 231.89620204 2.375 235.75 C0.88601648 239.96078134 0.22900221 244.20042133 -0.375 248.6171875 C-1.07926496 251.30219766 -1.80977478 252.33305519 -4 254 C-6.375 254.4375 -6.375 254.4375 -9 254 C-10.7074998 252.71937515 -12.37373596 251.38232443 -14 250 C-15.66392045 249.32650839 -17.33032028 248.6590841 -19 248 C-21.20923713 246.30736997 -21.92216336 245.44129663 -22.41134644 242.66786194 C-22.37672823 235.68393372 -21.11981474 230.05757279 -18.6328125 223.55859375 C-18.28214218 222.60017578 -17.93147186 221.64175781 -17.57017517 220.65429688 C-16.438754 217.57544394 -15.28247121 214.50664279 -14.125 211.4375 C-13.34160709 209.3215666 -12.55962961 207.20510863 -11.77905273 205.08813477 C-9.54531392 199.04887681 -7.27982108 193.0219959 -5 187 C-4.5471463 185.80334717 -4.5471463 185.80334717 -4.08514404 184.58251953 C-1.68495765 178.24902878 0.74205992 171.92663684 3.21484375 165.62109375 C4.58695084 162.11273008 5.85855206 158.59167649 7 155 C6.38511719 155.2165625 5.77023437 155.433125 5.13671875 155.65625 C4.32847656 155.9346875 3.52023437 156.213125 2.6875 156.5 C1.48673828 156.91765625 1.48673828 156.91765625 0.26171875 157.34375 C-2 158 -2 158 -5 158 C-5.061875 159.27875 -5.12375 160.5575 -5.1875 161.875 C-6.0621229 169.60083565 -10.00380676 177.0714268 -15.2734375 182.7734375 C-18.04361532 184.74139188 -20.37219095 184.84101124 -23.69921875 184.5390625 C-30.0630229 183.04805236 -33.82778855 179.76272603 -37.3125 174.3125 C-43.70163137 162.64539054 -44.15123148 151.07872563 -44.0625 138.0625 C-44.05798828 136.80630859 -44.05347656 135.55011719 -44.04882812 134.25585938 C-44.03709681 131.17052337 -44.020681 128.08528684 -44 125 C-44.75168457 126.05127075 -44.75168457 126.05127075 -45.51855469 127.1237793 C-60.90339555 148.57420045 -60.90339555 148.57420045 -70 156 C-71.3703055 157.97485205 -72.70672372 159.97386717 -74 162 C-76.4375 164.625 -76.4375 164.625 -79 167 C-79.721875 167.763125 -80.44375 168.52625 -81.1875 169.3125 C-85.41005648 171.84603389 -89.19797265 171.60870769 -94 171 C-99.89926349 169.25923372 -102.50612237 166.82977202 -106 162 C-108.68434983 156.63130034 -107.0907486 149.4238197 -105.3203125 143.94921875 C-102.90326986 138.55020338 -99.61022228 133.67269938 -96.375 128.734375 C-92.38108853 122.79198319 -92.38108853 122.79198319 -90.88671875 115.921875 C-92.43879915 111.84834469 -95.1915397 110.33887559 -98.8125 108.25 C-99.44220703 107.86457031 -100.07191406 107.47914063 -100.72070312 107.08203125 C-103.7457106 105.24734676 -106.80196418 103.5144351 -110 102 C-110.598125 102.556875 -111.19625 103.11375 -111.8125 103.6875 C-119.68896456 109.40179782 -128.58430278 111.97882939 -138 114 C-137.9175 115.134375 -137.835 116.26875 -137.75 117.4375 C-137.85688998 134.48645238 -145.71080368 153.29030878 -157 166 C-161.60903905 170.15489893 -166.30624033 171.81005719 -172.4765625 172.1328125 C-178.07277847 171.83827482 -182.41691888 170.29524819 -186.75 166.75 C-193.72335163 158.22701467 -195.92193095 152.22109479 -195 141 C-192.8142582 131.91515053 -189.27501903 123.18422841 -185.79101562 114.53149414 C-184.99230136 112.54333657 -184.20677159 110.55028769 -183.421875 108.55664062 C-182.90702967 107.26791741 -182.39143196 105.97949447 -181.875 104.69140625 C-181.19050781 102.97739624 -181.19050781 102.97739624 -180.4921875 101.22875977 C-176.49647215 92.58292608 -168.93899289 81.9940181 -160 78 C-152.41054592 78 -144.85627006 80.56913186 -139.0625 85.5 C-138.0415625 86.7375 -138.0415625 86.7375 -137 88 C-136.38125 88.680625 -135.7625 89.36125 -135.125 90.0625 C-134 92 -134 92 -134.0625 94.0625 C-135.35127283 96.72596385 -136.40686856 97.50894942 -139 99 C-140.34853171 99.43455804 -141.70363964 99.84890526 -143.0625 100.25 C-150.00800052 102.51159273 -157.04165931 105.41353063 -160.66796875 112.0546875 C-161.48511447 114.15160913 -162.23614195 116.27613415 -162.90234375 118.42578125 C-164.20039511 121.46996576 -165.08754796 121.71088188 -168 123 C-168.40961596 125.32115711 -168.73128549 127.65834501 -169 130 C-169.495 131.0725 -169.99 132.145 -170.5 133.25 C-173.96653246 140.82564166 -173.51265403 150.82769165 -173 159 C-171.90645094 160.29524348 -171.90645094 160.29524348 -169.25 160.375 C-165.80341949 159.97731763 -164.52439452 159.31303581 -162.27734375 156.70703125 C-153.08582696 144.42356691 -148.62416047 130.05635248 -147.66894531 114.83789062 C-147.37845488 110.6722958 -146.96208252 108.04990707 -144 105 C-143.2575 105.165 -142.515 105.33 -141.75 105.5 C-133.71920803 106.96014399 -126.00537851 103.12785962 -119.3125 98.8125 C-116.92567945 97.20809753 -116.92567945 97.20809753 -116 95 C-116.59039062 94.72414063 -117.18078125 94.44828125 -117.7890625 94.1640625 C-124.05761565 90.86365819 -129.60336855 85.20056211 -133 79 C-134.05907118 74.52558094 -134.10574876 70.20936886 -134.0625 65.625 C-134.05347656 64.37976563 -134.04445313 63.13453125 -134.03515625 61.8515625 C-134.02355469 60.91054687 -134.01195312 59.96953125 -134 59 C-135.08539063 59.04640625 -136.17078125 59.0928125 -137.2890625 59.140625 C-138.73434731 59.17816487 -140.17966211 59.21456264 -141.625 59.25 C-142.33785156 59.28351563 -143.05070312 59.31703125 -143.78515625 59.3515625 C-148.99624547 59.44717882 -151.88460115 58.46624368 -156 55 C-159.89325535 50.23232366 -160.42855551 45.08468585 -160.3359375 39.1015625 C-160 37 -160 37 -158 35 C-157.01 35 -156.02 35 -155 35 C-154.89042969 35.56589844 -154.78085937 36.13179687 -154.66796875 36.71484375 C-154.50941406 37.44832031 -154.35085938 38.18179688 -154.1875 38.9375 C-154.03667969 39.66839844 -153.88585937 40.39929688 -153.73046875 41.15234375 C-153.48941406 41.76207031 -153.24835938 42.37179688 -153 43 C-144.32803661 45.89065446 -132.43556158 43.00394271 -124 40 C-121.80481781 38.82453927 -119.77614869 37.54033067 -117.71875 36.140625 C-112.24210702 32.50612557 -106.33995733 32.56795853 -100 33 C-99.27707764 33.19513184 -98.55415527 33.39026367 -97.80932617 33.59130859 C-94.20672213 34.11540342 -91.09552275 33.46294876 -87.5859375 32.70703125 C-86.86664566 32.56090897 -86.14735382 32.41478668 -85.40626526 32.26423645 C-83.86259169 31.95045492 -82.31970514 31.63278102 -80.77755737 31.31158447 C-76.71981248 30.46866705 -72.65526497 29.66042977 -68.58984375 28.85546875 C-67.36821281 28.61334656 -67.36821281 28.61334656 -66.12190247 28.36633301 C-58.75415928 26.92181668 -51.36779166 25.70789955 -43.9375 24.625 C-42.88288574 24.4700708 -41.82827148 24.3151416 -40.74169922 24.15551758 C-35.0087605 23.34306611 -29.28402582 22.72553043 -23.51538086 22.23242188 C-20.09190602 21.91609187 -16.71335235 21.44257708 -13.3125 20.9375 C-12.11238281 20.76089844 -10.91226563 20.58429688 -9.67578125 20.40234375 C-8.79277344 20.26957031 -7.90976562 20.13679688 -7 20 C-6.20752336 17.79195441 -5.4159987 15.58357503 -4.625 13.375 C-3.96371094 11.53035156 -3.96371094 11.53035156 -3.2890625 9.6484375 C-2.15654289 6.44306381 -1.06307102 3.22895402 0 0 Z M-26.4375 32.3125 C-27.57638672 32.52583984 -28.71527344 32.73917969 -29.88867188 32.95898438 C-36.23688117 34.17351899 -42.4377286 35.57735904 -48.63110352 37.43212891 C-51.02110077 38.00505827 -53.05041548 38.12616871 -55.5 38.0625 C-59.11538937 37.6656442 -59.11538937 37.6656442 -62 40 C-65.32763354 40.88760851 -68.65802822 41.66817018 -72.01953125 42.41210938 C-77.92456331 43.79063247 -77.92456331 43.79063247 -83 47 C-83.5263235 49.65190437 -83.5263235 49.65190437 -83.3125 52.6875 C-83.81268499 65.17823068 -91.78819188 76.04999044 -98.3359375 86.328125 C-99.69814338 88.5153288 -100.90272336 90.67244349 -102 93 C-100.37590562 94.18873828 -98.75065981 95.37590343 -97.125 96.5625 C-96.12597656 97.2946875 -95.12695312 98.026875 -94.09765625 98.78125 C-92.15331208 100.17392023 -90.18460104 101.53379793 -88.18359375 102.84375 C-80.24902841 108.04674367 -77.21903307 112.62863289 -75 122 C-74.45896999 128.4923601 -74.02399278 136.76183111 -77.4921875 142.4453125 C-79.3125 144.125 -79.3125 144.125 -81.2109375 145.54296875 C-84.2963041 148.05572364 -85.42518403 151.40941958 -87 155 C-70.08794488 149.41674956 -55.34961368 131.67732866 -44.671875 118.109375 C-43 116 -43 116 -41 114 C-40.20302504 111.37923591 -39.48885571 108.7768501 -38.8125 106.125 C-34.43148087 89.79692869 -28.32609025 74.09376129 -22.3125 58.3125 C-22.03059814 57.57153076 -21.74869629 56.83056152 -21.45825195 56.06713867 C-15.81900291 41.26923728 -15.81900291 41.26923728 -12.65307617 34.68823242 C-11.81960701 32.83536708 -11.81960701 32.83536708 -12 30 C-16.82585792 30 -21.71306771 31.40704867 -26.4375 32.3125 Z M-109.88671875 54.0625 C-111.91625801 54.96285013 -113.83471045 55.53077247 -116 56 C-117.01111093 59.04913228 -117.01111093 59.04913228 -116 62 C-116.804375 62.680625 -117.60875 63.36125 -118.4375 64.0625 C-121.51674302 67.59236395 -121.91998316 69.35902302 -122 74 C-121.95528453 77.58169531 -121.95528453 77.58169531 -120 81 C-116.52880555 83.97830581 -112.84272403 86.52600543 -109 89 C-103.73803926 86.93280114 -101.31750581 82.96607001 -99.11328125 77.96875 C-98.50438532 76.4826757 -97.90427495 74.99297471 -97.3125 73.5 C-96.85133789 72.38044922 -96.85133789 72.38044922 -96.38085938 71.23828125 C-94.11074473 65.62508749 -92.85615835 60.78812405 -92.9375 54.6875 C-92.94652344 53.80449219 -92.95554687 52.92148438 -92.96484375 52.01171875 C-92.97644531 51.34785156 -92.98804688 50.68398437 -93 50 C-99.33206337 50 -104.24419521 51.33644955 -109.88671875 54.0625 Z M64.375 84.375 C62.78468592 85.89968321 62.78468592 85.89968321 63 88 C62.34 88 61.68 88 61 88 C59.65701945 89.75669365 59.65701945 89.75669365 58.34765625 92.07421875 C57.82365234 92.95932129 57.29964844 93.84442383 56.75976562 94.75634766 C55.91961914 96.20726807 55.91961914 96.20726807 55.0625 97.6875 C54.1972168 99.16935791 54.1972168 99.16935791 53.31445312 100.68115234 C45.4082477 114.33476123 37.54923892 128.19180995 32 143 C33.33320679 143.02777514 34.66659713 143.04673341 36 143.0625 C37.11375 143.07990234 37.11375 143.07990234 38.25 143.09765625 C41.87670253 142.9688671 45.40336158 142.48386979 49 142 C49.01417969 140.9584375 49.02835938 139.916875 49.04296875 138.84375 C49.60504529 118.26496509 57.69767826 100.59103916 68 83 C65.89968321 82.78468592 65.89968321 82.78468592 64.375 84.375 Z M115 108 C111.83165121 111.88378239 111.0609928 116.18472501 110 121 C109.34 121 108.68 121 108 121 C107.67 120.34 107.34 119.68 107 119 C105.515 121.475 105.515 121.475 104 124 C104.66 124 105.32 124 106 124 C105.6390625 124.86882812 105.278125 125.73765625 104.90625 126.6328125 C104.4421875 127.78523438 103.978125 128.93765625 103.5 130.125 C103.0359375 131.26195312 102.571875 132.39890625 102.09375 133.5703125 C101.01684959 136.9471645 100.78639193 139.48614728 101 143 C101.639375 143.28875 102.27875 143.5775 102.9375 143.875 C105 145 105 145 106 147 C104.02 147 102.04 147 100 147 C99.97314062 149.14576637 99.95366912 151.29162645 99.9375 153.4375 C99.92589844 154.63246094 99.91429687 155.82742188 99.90234375 157.05859375 C99.66098208 159.88873341 99.66098208 159.88873341 101 161 C104.92389341 161.37729744 107.19891711 161.54359196 110.515625 159.29296875 C117.75799894 152.60857645 121.65550087 143.09017711 125 134 C125.32097656 133.16726562 125.64195312 132.33453125 125.97265625 131.4765625 C129.4528521 121.47302279 128.96198715 111.73988508 125 102 C121.68414557 102 117.54656153 106.07050763 115 108 Z " fill="#000000" transform="translate(532,119)"/>
<path d="M0 0 C0.68238739 -0.00885223 1.36477478 -0.01770447 2.06784058 -0.02682495 C21.72181274 -0.20020836 40.43752755 5.42287112 56.0625 17.5625 C57.09375 18.325625 58.125 19.08875 59.1875 19.875 C60.115625 20.7103125 60.115625 20.7103125 61.0625 21.5625 C61.0625 22.2225 61.0625 22.8825 61.0625 23.5625 C61.7225 23.5625 62.3825 23.5625 63.0625 23.5625 C72.75502944 35.90495744 76.45086494 50.0862031 75.0625 65.5625 C73.25677451 75.16895961 69.44166983 83.8778483 65.0625 92.5625 C64.258125 94.20412109 64.258125 94.20412109 63.4375 95.87890625 C59.49269628 103.61327835 54.7738863 110.049007 49.0625 116.5625 C48.62454102 117.10616211 48.18658203 117.64982422 47.73535156 118.20996094 C43.93632666 122.8629305 39.7387913 126.4718324 34.9375 130.0625 C34.19048828 130.62638428 33.44347656 131.19026855 32.67382812 131.77124023 C26.71571588 136.20594245 20.67231671 140.15003546 14.0625 143.5625 C13.25296875 143.98144531 12.4434375 144.40039062 11.609375 144.83203125 C7.9347922 146.60058045 4.75791948 147.73275958 0.6875 148.125 C-2.85747472 148.1609197 -2.85747472 148.1609197 -4.33984375 150.046875 C-6.52790784 152.1225935 -8.15705916 152.05727657 -11.125 152.25 C-12.02605469 152.31574219 -12.92710937 152.38148438 -13.85546875 152.44921875 C-14.88607422 152.50529297 -14.88607422 152.50529297 -15.9375 152.5625 C-16.5975 151.5725 -17.2575 150.5825 -17.9375 149.5625 C-18.9275 152.5325 -18.9275 152.5325 -19.9375 155.5625 C-22.01747826 155.8390289 -24.1018308 156.08280075 -26.1875 156.3125 C-27.92773438 156.52132812 -27.92773438 156.52132812 -29.703125 156.734375 C-32.9375 156.5625 -32.9375 156.5625 -35.125 154.59375 C-35.723125 153.9234375 -36.32125 153.253125 -36.9375 152.5625 C-40.6050213 152.22832071 -40.6050213 152.22832071 -43.9375 152.5625 C-44.21295654 153.43398682 -44.48841309 154.30547363 -44.7722168 155.20336914 C-45.86885542 158.36462009 -47.13897394 161.29243984 -48.58203125 164.30859375 C-58.31684608 184.8702946 -67.15789881 204.92591964 -65.75 228.15625 C-65.8428125 229.34734375 -65.8428125 229.34734375 -65.9375 230.5625 C-69.72758682 233.08922455 -71.42947342 233.00591245 -75.9375 232.5625 C-80.42273996 231.16504651 -83.31153012 229.26671611 -86.4375 225.75 C-92.54578816 212.56604773 -85.48026856 196.1557162 -80.9375 183.5625 C-79.2811437 179.18912279 -77.49110339 174.88019737 -75.640625 170.5859375 C-73.5418418 165.70398527 -71.71136386 160.72748181 -69.89038086 155.73657227 C-68.95712399 153.19657079 -68.06016663 150.77551157 -66.70703125 148.42578125 C-65.60539929 145.75837798 -65.99382686 144.25625788 -66.9375 141.5625 C-68.59277191 139.78875684 -68.59277191 139.78875684 -70.6875 138.3125 C-75.14247292 134.673339 -77.49557748 130.7083539 -79.9375 125.5625 C-80.2675 124.9025 -80.5975 124.2425 -80.9375 123.5625 C-81.49596575 115.98025341 -81.42064319 109.39978108 -77.9375 102.5625 C-76.9475 101.9025 -75.9575 101.2425 -74.9375 100.5625 C-73.9375 101.5625 -73.9375 101.5625 -73.8125 105.375 C-73.84358197 108.29670489 -74.20824034 110.73661881 -74.9375 113.5625 C-75.47811983 120.59055781 -74.08943233 125.945285 -69.625 131.375 C-66.86131024 133.62451492 -64.18977119 135.12544994 -60.9375 136.5625 C-60.75574219 135.94761719 -60.57398438 135.33273438 -60.38671875 134.69921875 C-60.13535156 133.89097656 -59.88398438 133.08273438 -59.625 132.25 C-59.38136719 131.44949219 -59.13773437 130.64898437 -58.88671875 129.82421875 C-57.87005271 127.40179225 -56.78991727 126.37786893 -54.9375 124.5625 C-53.98719568 122.86265988 -53.09346017 121.130309 -52.25 119.375 C-51.81300781 118.47394531 -51.37601562 117.57289063 -50.92578125 116.64453125 C-50.59964844 115.95746094 -50.27351563 115.27039063 -49.9375 114.5625 C-49.2775 114.5625 -48.6175 114.5625 -47.9375 114.5625 C-48.0303125 113.44875 -48.0303125 113.44875 -48.125 112.3125 C-47.89832591 108.98794669 -46.98041192 108.13505575 -44.9375 105.5625 C-43.90648053 103.24270619 -42.90813483 100.90820085 -41.9375 98.5625 C-31.2234745 76.20548725 -31.2234745 76.20548725 -23.9375 72.5625 C-23.59596063 70.89749557 -23.26300502 69.23071323 -22.9375 67.5625 C-22.2775 66.9025 -21.6175 66.2425 -20.9375 65.5625 C-20.6075 64.5725 -20.2775 63.5825 -19.9375 62.5625 C-19.009375 61.9746875 -19.009375 61.9746875 -18.0625 61.375 C-15.59635907 59.58490087 -15.59635907 59.58490087 -14.6953125 55.8984375 C-12.9774837 51.09900328 -10.20575332 47.98583894 -6.6875 44.375 C-6.13964844 43.78525391 -5.59179688 43.19550781 -5.02734375 42.58789062 C-0.54263586 37.86686908 4.095369 33.18715916 10.625 31.8125 C17.38486699 32.22501157 25.80564845 36.83051296 30.953125 41.1484375 C32.0625 42.5625 32.0625 42.5625 32.5 44.875 C31.90303263 48.54208527 30.38873221 50.70455758 28.0625 53.5625 C27.0725 53.5625 26.0825 53.5625 25.0625 53.5625 C25.0625 52.9025 25.0625 52.2425 25.0625 51.5625 C23.47560971 52.6406163 21.89313918 53.72523952 20.3125 54.8125 C18.98992187 55.71742188 18.98992187 55.71742188 17.640625 56.640625 C15.01949361 58.49343935 15.01949361 58.49343935 12.859375 60.796875 C11.0625 62.5625 11.0625 62.5625 9.0625 62.5625 C8.79308594 63.15804687 8.52367187 63.75359375 8.24609375 64.3671875 C7.06181245 66.56377525 5.86932546 67.92185027 4.125 69.6875 C0.33598836 73.91248579 -2.56242245 78.54258236 -5.5 83.375 C-5.94657959 84.10928223 -6.39315918 84.84356445 -6.85327148 85.60009766 C-13.73519163 97.07875373 -19.85346982 109.00474248 -26.12939453 120.82128906 C-27.17126478 122.78240023 -28.2144642 124.74279989 -29.2578125 126.703125 C-29.86898926 127.85329102 -30.48016602 129.00345703 -31.10986328 130.18847656 C-33.00070595 133.67918532 -34.9553102 137.12305894 -36.9375 140.5625 C-22.39618474 139.99000727 -10.54291517 134.28210543 2.0625 127.5625 C3.09375 127.01722656 4.125 126.47195312 5.1875 125.91015625 C16.79297892 119.46091593 27.21966446 111.06706814 37.375 102.5625 C37.90794678 102.1180957 38.44089355 101.67369141 38.98999023 101.21582031 C41.17653875 99.35028861 43.06721453 97.55619977 44.79296875 95.25 C45.21191406 94.693125 45.63085938 94.13625 46.0625 93.5625 C46.7225 93.5625 47.3825 93.5625 48.0625 93.5625 C48.31257812 92.88832031 48.56265625 92.21414062 48.8203125 91.51953125 C50.01995074 88.66378864 51.41764113 85.97474595 52.88085938 83.24707031 C59.3327672 71.05284526 65.39750188 55.70589572 61.25 41.84765625 C57.19333987 32.48071533 49.33034435 27.55525722 40.1953125 23.6875 C13.25366633 14.01269439 -15.90529859 14.49741919 -42.9375 23.5625 C-44.03707031 23.92085937 -45.13664062 24.27921875 -46.26953125 24.6484375 C-70.3873331 31.87442785 -70.3873331 31.87442785 -88.9375 46.5625 C-90.9375 47.5625 -92.9375 48.5625 -94.9375 49.5625 C-99.74135618 52.5129653 -104.01861947 55.48686425 -107.9375 59.5625 C-108.5975 59.5625 -109.2575 59.5625 -109.9375 59.5625 C-109.9375 60.2225 -109.9375 60.8825 -109.9375 61.5625 C-111.39306641 63.00561523 -111.39306641 63.00561523 -113.4140625 64.68359375 C-126.6986714 75.99567493 -143.19337485 90.08474268 -147.9375 107.5625 C-148.13173236 110.26426523 -148.13173236 110.26426523 -147.6875 112.6875 C-147.5740625 113.52925781 -147.460625 114.37101562 -147.34375 115.23828125 C-147.01350469 117.12766547 -146.61104997 119.00432095 -146.1875 120.875 C-145.86611517 124.32988696 -146.9209306 125.81996562 -148.9375 128.5625 C-154.55014684 128.06726646 -157.88111372 125.00304636 -161.359375 120.875 C-166.26631849 113.94755037 -167.60453839 105.66136179 -166.5625 97.3125 C-163.43118487 83.66469255 -155.72258876 73.18243958 -145.9375 63.5625 C-145.13441406 62.71300781 -144.33132812 61.86351562 -143.50390625 60.98828125 C-132.7652039 49.75584546 -120.06066769 40.78911548 -106.9375 32.5625 C-106.3487207 32.18915527 -105.75994141 31.81581055 -105.15332031 31.43115234 C-86.15518276 19.55338681 -64.40084397 11.8951126 -42.80224609 6.30908203 C-40.92789837 5.82060791 -39.05805396 5.31442704 -37.19384766 4.78857422 C-24.82399059 1.30822642 -12.80450991 0.07658048 0 0 Z M-98.1875 34 C-99.07953125 34.65871094 -99.9715625 35.31742188 -100.890625 35.99609375 C-101.56609375 36.51300781 -102.2415625 37.02992187 -102.9375 37.5625 C-101.20698202 38.39418784 -101.20698202 38.39418784 -98.9375 38.5625 C-96.26620811 37.15338009 -96.26620811 37.15338009 -93.6875 35.125 C-92.79546875 34.46628906 -91.9034375 33.80757812 -90.984375 33.12890625 C-90.30890625 32.61199219 -89.6334375 32.09507813 -88.9375 31.5625 C-93.04698028 29.80540913 -94.80054285 31.45978214 -98.1875 34 Z M-107.9375 40.5625 C-108.9275 41.5525 -109.9175 42.5425 -110.9375 43.5625 C-109.6175 43.5625 -108.2975 43.5625 -106.9375 43.5625 C-107.2675 42.5725 -107.5975 41.5825 -107.9375 40.5625 Z M-113.9375 44.5625 C-113.6075 45.2225 -113.2775 45.8825 -112.9375 46.5625 C-112.6075 45.9025 -112.2775 45.2425 -111.9375 44.5625 C-112.5975 44.5625 -113.2575 44.5625 -113.9375 44.5625 Z M-121.9375 51.5625 C-120.9375 53.5625 -120.9375 53.5625 -120.9375 53.5625 Z M-22.01953125 142.4375 C-22.95087891 142.61796875 -23.88222656 142.7984375 -24.84179688 142.984375 C-26.28135742 143.27054688 -26.28135742 143.27054688 -27.75 143.5625 C-28.72904297 143.75328125 -29.70808594 143.9440625 -30.71679688 144.140625 C-33.12454428 144.61042937 -35.53136567 145.08451479 -37.9375 145.5625 C-37.9375 145.8925 -37.9375 146.2225 -37.9375 146.5625 C-28.8386942 146.20640639 -20.64099911 145.43954025 -11.9375 142.5625 C-11.9375 142.2325 -11.9375 141.9025 -11.9375 141.5625 C-15.43135565 141.47494841 -18.59256579 141.7647215 -22.01953125 142.4375 Z " fill="#000000" transform="translate(257.9375,83.4375)"/>
<path d="M0 0 C0 0.33 0 0.66 0 1 C-1.65 1.33 -3.3 1.66 -5 2 C-5 2.66 -5 3.32 -5 4 C-2.36 4 0.28 4 3 4 C3 3.34 3 2.68 3 2 C3.60884033 2.06058594 4.21768066 2.12117188 4.8449707 2.18359375 C7.66696964 2.46122868 10.48969948 2.73064186 13.3125 3 C14.26962891 3.09539062 15.22675781 3.19078125 16.21289062 3.2890625 C29.84198673 4.59892563 29.84198673 4.59892563 42.9921875 1.59765625 C45.84753719 0.74771753 48.15228792 1.30543608 51 2 C51.66 1.67 52.32 1.34 53 1 C56.06124127 0.7576839 59.10147291 0.57504282 62.16796875 0.44140625 C63.10021774 0.39915421 64.03246674 0.35690216 64.9929657 0.31336975 C75.76566924 -0.13260553 86.53277918 -0.1101144 97.3125 -0.0625 C99.33658741 -0.05746455 101.36067606 -0.05290533 103.38476562 -0.04882812 C108.25654217 -0.03800835 113.12825654 -0.02086194 118 0 C118 0.66 118 1.32 118 2 C125.59 2 133.18 2 141 2 C141.33 2.66 141.66 3.32 142 4 C138.3129484 4.3384185 134.62529741 4.66981608 130.9375 5 C129.37999023 5.14308594 129.37999023 5.14308594 127.79101562 5.2890625 C122.50422394 5.75899954 117.30765619 6.12045745 112 6 C112 6.66 112 7.32 112 8 C113.94603274 8.59070014 113.94603274 8.59070014 116 9 C116.33 8.67 116.66 8.34 117 8 C118.36874291 7.91339428 119.74183324 7.89295917 121.11328125 7.90234375 C121.94923828 7.90556641 122.78519531 7.90878906 123.64648438 7.91210938 C124.96616211 7.92467773 124.96616211 7.92467773 126.3125 7.9375 C127.18068359 7.94201172 128.04886719 7.94652344 128.94335938 7.95117188 C130.56812893 7.95990049 132.19288964 7.97067795 133.81762695 7.98413086 C135.87837028 7.99911557 137.9392022 8 140 8 C141.91804185 8.15001445 143.83476686 8.31759684 145.75 8.5 C146.73484375 8.5928125 147.7196875 8.685625 148.734375 8.78125 C149.85585937 8.88953125 149.85585937 8.88953125 151 9 C151 8.34 151 7.68 151 7 C152.051875 7.165 153.10375 7.33 154.1875 7.5 C160.10578512 8.25711395 166.04521179 8.08169679 172 8 C172 8.66 172 9.32 172 10 C173.21236328 9.98259766 173.21236328 9.98259766 174.44921875 9.96484375 C176.05216797 9.95130859 176.05216797 9.95130859 177.6875 9.9375 C178.74324219 9.92589844 179.79898438 9.91429687 180.88671875 9.90234375 C184 10 184 10 186.4375 10.5 C189.76199958 11.14868285 192.92858367 11.09412539 196.3125 11.0625 C197.56675781 11.05347656 198.82101562 11.04445313 200.11328125 11.03515625 C201.06589844 11.02355469 202.01851562 11.01195312 203 11 C202.67 11.66 202.34 12.32 202 13 C206.64586892 12.51515724 206.64586892 12.51515724 211 11 C213.3329866 10.95977609 215.66706666 10.95679753 218 11 C218 11.33 218 11.66 218 12 C232.12698332 12.05821559 246.24178526 11.92427721 260.36572266 11.62768555 C263.4976595 11.56254868 266.62966871 11.50277297 269.76171875 11.44335938 C282.85728724 11.18220186 295.91907162 10.67797495 309 10 C297.78 10 286.56 10 275 10 C275 9.34 275 8.68 275 8 C290.49805891 6.77731207 305.95316632 5.77425316 321.49511719 5.34204102 C328.36433541 5.1417143 335.16434557 4.71238586 342 4 C341.67 3.34 341.34 2.68 341 2 C343.62450086 1.77880061 346.24870486 1.57253331 348.875 1.375 C349.99455078 1.27832031 349.99455078 1.27832031 351.13671875 1.1796875 C353.0870047 1.03912635 355.04469467 1.01240151 357 1 C357.66 1.66 358.32 2.32 359 3 C356.69 3.33 354.38 3.66 352 4 C352 4.66 352 5.32 352 6 C352.74765625 5.98839844 353.4953125 5.97679687 354.265625 5.96484375 C355.25046875 5.95582031 356.2353125 5.94679688 357.25 5.9375 C358.71179688 5.92009766 358.71179688 5.92009766 360.203125 5.90234375 C363 6 363 6 364.80541992 6.53369141 C367.63331192 7.13456733 370.03521035 6.84909817 372.91015625 6.55859375 C379.77990819 5.96035006 386.54804671 5.96756564 393.4375 6.0625 C413.09432486 6.19255099 432.5980138 4.65329731 452.14941406 2.75488281 C461.31458879 1.903326 470.49851746 1.38991086 479.6875 0.875 C480.46530823 0.83052734 481.24311646 0.78605469 482.04449463 0.74023438 C490.69936168 0.24942487 499.32733719 -0.14841172 508 0 C504.9508762 3.0491238 501.11271716 3.15203845 497 3.875 C496.04738281 4.04499512 495.09476563 4.21499023 494.11328125 4.39013672 C479.49684251 6.88657677 464.73747595 8.41624894 450 10 C448.49300537 10.16628906 448.49300537 10.16628906 446.95556641 10.3359375 C432.07430852 11.95626207 417.13491841 12.6221727 402.18676758 13.30322266 C401.35498993 13.34234268 400.52321228 13.38146271 399.66622925 13.42176819 C398.09462293 13.49540101 396.52286671 13.5659242 394.95095825 13.63279724 C391.19592284 13.81043588 387.67417279 14.24301148 384 15 C381.58732415 15.20188876 379.17118541 15.36389228 376.75390625 15.5 C376.04340118 15.54024292 375.33289612 15.58048584 374.6008606 15.62194824 C372.25496789 15.75259707 369.90879315 15.87676454 367.5625 16 C366.74955475 16.04390869 365.9366095 16.08781738 365.09902954 16.13305664 C351.83594754 16.84445788 338.57911212 17.26155753 325.30099487 17.55224609 C312.90434995 17.82908518 300.56142394 18.42671688 288.19091797 19.26733398 C278.91152238 19.89767946 269.63830114 20.35867672 260.34228516 20.65820312 C259.44171387 20.68978516 258.54114258 20.72136719 257.61328125 20.75390625 C256.83766846 20.77783447 256.06205566 20.8017627 255.26293945 20.82641602 C252.93867465 20.95876452 252.93867465 20.95876452 250.44995117 21.51147461 C247.27656692 22.14425407 244.22648388 22.06326439 241 22 C241 21.34 241 20.68 241 20 C240.45722412 20.16443604 239.91444824 20.32887207 239.35522461 20.49829102 C236.60350741 21.08446069 234.12967959 21.0781627 231.31640625 21.02734375 C229.67768555 21.00897461 229.67768555 21.00897461 228.00585938 20.99023438 C225.71412855 20.95513697 223.42245478 20.91608765 221.13085938 20.87304688 C220.03708984 20.86208984 218.94332031 20.85113281 217.81640625 20.83984375 C216.82068604 20.82300537 215.82496582 20.80616699 214.79907227 20.78881836 C211.82314779 21.01334297 209.71263052 21.79963838 207 23 C203.171506 23.41370173 199.67497651 23.22499217 196 22 C194.66474283 21.92026524 193.32587917 21.89228662 191.98828125 21.90234375 C191.23095703 21.90556641 190.47363281 21.90878906 189.69335938 21.91210938 C188.90767578 21.92048828 188.12199219 21.92886719 187.3125 21.9375 C186.51521484 21.94201172 185.71792969 21.94652344 184.89648438 21.95117188 C182.93095743 21.9629415 180.96546915 21.98087652 179 22 C179 22.33 179 22.66 179 23 C172.21089379 23.05360636 165.4218455 23.08684098 158.63256836 23.10986328 C156.35455302 23.11952183 154.0765482 23.13281741 151.79858398 23.15087891 C134.89801876 23.28085385 118.066362 22.80629101 101.18040085 22.14150238 C70.44160087 20.93925457 39.75910093 20.75098122 9.00321728 20.85594666 C2.10011754 20.87906209 -4.80298842 20.88948243 -11.70611775 20.89935279 C-25.80412014 20.91976881 -39.90205717 20.95448675 -54 21 C-54 21.66 -54 22.32 -54 23 C-55.74991334 23.02715383 -57.49994945 23.04646551 -59.25 23.0625 C-60.71179688 23.07990234 -60.71179688 23.07990234 -62.203125 23.09765625 C-64.70709741 23.01022705 -66.59569192 22.61004832 -69 22 C-71.4138176 21.77882441 -73.83114597 21.59427758 -76.25 21.4375 C-77.51328125 21.35371094 -78.7765625 21.26992188 -80.078125 21.18359375 C-81.52445312 21.09271484 -81.52445312 21.09271484 -83 21 C-83 21.66 -83 22.32 -83 23 C-88.04543971 23.17103185 -92.63609063 22.9550095 -97.60546875 22.05859375 C-106.56911174 20.62978158 -115.56973468 20.33176739 -124.625 19.9375 C-127.21747495 19.82163116 -129.80980053 19.70370971 -132.40194702 19.58070374 C-134.00105031 19.50507061 -135.60035855 19.43362161 -137.19985962 19.3669281 C-140.3509777 19.21998191 -142.9902571 19.00324763 -146 18 C-146 18.66 -146 19.32 -146 20 C-146.77448486 19.99476318 -147.54896973 19.98952637 -148.34692383 19.98413086 C-165.26401515 19.88702629 -182.17500395 19.97523028 -199.08920288 20.31838989 C-200.97523221 20.35587486 -202.8613246 20.39032066 -204.74746704 20.42160034 C-217.36647965 20.56896286 -217.36647965 20.56896286 -229.78686523 22.57666016 C-234.1685205 23.4148058 -238.62179573 23.1237827 -243.0625 23 C-254.55517019 22.21319343 -254.55517019 22.21319343 -264.6418457 26.53149414 C-265.09003662 27.01610107 -265.53822754 27.50070801 -266 28 C-269.61530004 29.42494934 -273.41509724 29.09800836 -277.25 29.0625 C-278.51328125 29.05347656 -279.7765625 29.04445313 -281.078125 29.03515625 C-282.04234375 29.02355469 -283.0065625 29.01195312 -284 29 C-284 28.67 -284 28.34 -284 28 C-287.96 28 -291.92 28 -296 28 C-296 27.34 -296 26.68 -296 26 C-299.63 26.66 -303.26 27.32 -307 28 C-307 27.34 -307 26.68 -307 26 C-313.6 26 -320.2 26 -327 26 C-327.33 26.66 -327.66 27.32 -328 28 C-329.485 27.505 -329.485 27.505 -331 27 C-333.18309717 26.7497086 -335.371792 26.54634029 -337.5625 26.375 C-339.29693359 26.23191406 -339.29693359 26.23191406 -341.06640625 26.0859375 C-343.93501625 25.77033638 -343.93501625 25.77033638 -346 27 C-347.4465242 27.15067214 -348.8987934 27.24861036 -350.3515625 27.31640625 C-351.20234375 27.35830078 -352.053125 27.40019531 -352.9296875 27.44335938 C-354.26386719 27.50233398 -354.26386719 27.50233398 -355.625 27.5625 C-356.97078125 27.62727539 -356.97078125 27.62727539 -358.34375 27.69335938 C-360.56234283 27.79956861 -362.7810488 27.90161194 -365 28 C-365 27.34 -365 26.68 -365 26 C-371.435 26.495 -371.435 26.495 -378 27 C-378 27.66 -378 28.32 -378 29 C-379.77088083 28.8547445 -381.54170136 28.70875402 -383.3125 28.5625 C-384.41078125 28.47484375 -385.5090625 28.3871875 -386.640625 28.296875 C-388.71695986 28.11338494 -390.79121874 27.90055721 -392.859375 27.640625 C-398.62956965 26.94019675 -403.28670594 27.30373191 -408.953125 28.515625 C-415.53357286 29.56174748 -423.6487678 30.1170774 -430 28 C-430 27.34 -430 26.68 -430 26 C-429.43603516 25.9498877 -428.87207031 25.89977539 -428.29101562 25.84814453 C-425.69337763 25.61359122 -423.09673353 25.36935554 -420.5 25.125 C-419.613125 25.04636719 -418.72625 24.96773438 -417.8125 24.88671875 C-416.9359375 24.80292969 -416.059375 24.71914063 -415.15625 24.6328125 C-414.36025391 24.55949707 -413.56425781 24.48618164 -412.74414062 24.41064453 C-409.8139067 24.02131031 -409.8139067 24.02131031 -406.27856445 23.03442383 C-401.68478088 21.85034051 -397.09811323 21.31047477 -392.38671875 20.81640625 C-391.47271805 20.71636795 -390.55871735 20.61632965 -389.61701965 20.51325989 C-386.64116764 20.18987513 -383.66446059 19.87550431 -380.6875 19.5625 C-379.65947266 19.45294983 -378.63144531 19.34339966 -377.57226562 19.23052979 C-359.49705654 17.30555644 -341.41739108 15.54076788 -323.29119873 14.17321777 C-321.7454111 14.0563541 -320.19971736 13.93824279 -318.65411377 13.81896973 C-297.71810631 12.20338749 -276.7747672 11.02782903 -255.79296875 10.21484375 C-254.95131731 10.18216526 -254.10966587 10.14948677 -253.24250984 10.11581802 C-244.73883107 9.78707969 -236.23485372 9.46930465 -227.72989368 9.17548275 C-224.50708715 9.06320473 -221.28447274 8.94590508 -218.06186867 8.82797432 C-216.56721569 8.77467726 -215.07247332 8.72381335 -213.57764244 8.67576408 C-205.39266714 8.41256887 -197.28238885 7.90847616 -189.13964844 7.01586914 C-187.98665442 6.88983763 -187.98665442 6.88983763 -186.81036758 6.76126003 C-183.73070121 6.40303483 -180.95017906 5.98339302 -178 5 C-175.06464456 4.83372314 -172.14875989 4.71832065 -169.2109375 4.6484375 C-168.35190826 4.62528473 -167.49287903 4.60213196 -166.6078186 4.57827759 C-164.79394287 4.53069099 -162.98000428 4.48545058 -161.16601562 4.44238281 C-158.37866612 4.37508851 -155.59173716 4.2973969 -152.8046875 4.21875 C-151.0442867 4.17385274 -149.28387033 4.129561 -147.5234375 4.0859375 C-146.68493256 4.06203949 -145.84642761 4.03814148 -144.98251343 4.01351929 C-142.98881425 3.96990232 -140.99407021 3.97943707 -139 4 C-138.67 4.33 -138.34 4.66 -138 5 C-136.08092661 4.95976136 -134.16358749 4.83798165 -132.25 4.6875 C-130.97640625 4.58824219 -129.7028125 4.48898437 -128.390625 4.38671875 C-125.31477312 4.12430046 -122.24328554 3.82947335 -119.171875 3.51953125 C-109.70340346 2.56507744 -100.25740001 1.76671479 -90.75 1.3125 C-89.7909375 1.26416016 -88.831875 1.21582031 -87.84375 1.16601562 C-86.96203125 1.12798828 -86.0803125 1.08996094 -85.171875 1.05078125 C-83.9977002 0.99917847 -83.9977002 0.99917847 -82.79980469 0.9465332 C-81 1 -81 1 -80 2 C-78.0638109 2.02923553 -76.12647581 1.98609555 -74.19140625 1.9140625 C-72.97783447 1.87071777 -71.7642627 1.82737305 -70.51391602 1.78271484 C-68.55796509 1.704646 -68.55796509 1.704646 -66.5625 1.625 C-65.2277961 1.57598228 -63.89307917 1.52731789 -62.55834961 1.47900391 C-55.38465555 1.20813307 -48.22517387 0.84982441 -41.0625 0.375 C-33.61709121 -0.11205059 -26.42104593 0.22448877 -19 1 C-19 1.33 -19 1.66 -19 2 C-17.35 2.33 -15.7 2.66 -14 3 C-14 2.01 -14 1.02 -14 0 C-12.2300132 -0.19532961 -10.45895721 -0.38098882 -8.6875 -0.5625 C-7.70136719 -0.66691406 -6.71523438 -0.77132813 -5.69921875 -0.87890625 C-3 -1 -3 -1 0 0 Z M349 6 C347.02 6.33 345.04 6.66 343 7 C343 7.66 343 8.32 343 9 C346.3 9 349.6 9 353 9 C352.01 8.67 351.02 8.34 350 8 C349.67 7.34 349.34 6.68 349 6 Z M320 11 C327.26 10.67 334.52 10.34 342 10 C342 9.67 342 9.34 342 9 C338.70840684 8.94209647 335.41694397 8.90643739 332.125 8.875 C331.18785156 8.85824219 330.25070312 8.84148437 329.28515625 8.82421875 C328.38925781 8.81777344 327.49335937 8.81132812 326.5703125 8.8046875 C325.74289551 8.79421387 324.91547852 8.78374023 324.06298828 8.77294922 C321.77601843 8.80697743 321.77601843 8.80697743 320 11 Z " fill="#000000" transform="translate(430,405)"/>
<path d="M0 0 C3.76174992 -0.182426 6.12656492 -0.09946057 9.5234375 1.63671875 C13.98525011 6.86341352 16.23038772 12.29396518 15.7109375 19.19921875 C14.41479492 21.58154297 14.41479492 21.58154297 12.62890625 23.87890625 C-2.65237098 44.44587018 -14.38830523 68.70392787 -23.47265625 92.59375 C-24.76376211 95.95622452 -26.18902452 99.22829668 -27.6953125 102.5 C-30.43506734 108.45191688 -32.90447186 114.49718657 -35.3515625 120.57421875 C-36.31557081 122.95736936 -37.28044537 125.34016972 -38.24609375 127.72265625 C-38.49338226 128.33292664 -38.74067078 128.94319702 -38.99545288 129.57196045 C-40.78138191 133.97094017 -42.59594339 138.35740092 -44.42578125 142.73828125 C-53.56608154 164.6237406 -61.51641827 186.45941231 -68.2890625 209.19921875 C-68.62534668 210.32344238 -68.96163086 211.44766602 -69.30810547 212.60595703 C-70.28684474 215.88532605 -71.25859183 219.16665641 -72.2265625 222.44921875 C-72.66838867 223.93941528 -72.66838867 223.93941528 -73.11914062 225.4597168 C-75.89708968 234.97881123 -77.25114015 243.38883049 -75.2890625 253.19921875 C-74.5259375 252.43609375 -73.7628125 251.67296875 -72.9765625 250.88671875 C-71.08072917 248.99088542 -69.18489583 247.09505208 -67.2890625 245.19921875 C-65.97682754 249.13592363 -67.04609994 251.32410019 -68.2890625 255.19921875 C-68.9490625 255.19921875 -69.6090625 255.19921875 -70.2890625 255.19921875 C-70.9490625 256.84921875 -71.6090625 258.49921875 -72.2890625 260.19921875 C-79.30005151 261.52888908 -79.30005151 261.52888908 -83.4765625 260.13671875 C-87.82402299 257.14180153 -90.51727433 254.0000578 -92.6015625 249.13671875 C-96.83984609 224.86291275 -85.92607658 198.3761817 -79.2890625 175.19921875 C-79.06524902 174.41758362 -78.84143555 173.63594849 -78.61083984 172.83062744 C-71.11042313 146.69743662 -62.53787518 121.7027334 -51.79345703 96.70507812 C-50.24082109 93.08679638 -48.69940685 89.46383041 -47.16015625 85.83984375 C-42.4402098 74.74167058 -37.71189525 63.66483351 -32.49609375 52.7890625 C-31.2170124 50.17328814 -31.2170124 50.17328814 -30.2890625 47.19921875 C-29.6290625 46.86921875 -28.9690625 46.53921875 -28.2890625 46.19921875 C-27.16656209 43.52092114 -26.13897363 40.8678693 -25.1640625 38.13671875 C-24.74833984 36.99879883 -24.74833984 36.99879883 -24.32421875 35.83789062 C-23.63944027 33.96065307 -22.96342487 32.08022321 -22.2890625 30.19921875 C-21.6290625 30.19921875 -20.9690625 30.19921875 -20.2890625 30.19921875 C-20.2890625 28.54921875 -20.2890625 26.89921875 -20.2890625 25.19921875 C-19.2990625 24.86921875 -18.3090625 24.53921875 -17.2890625 24.19921875 C-16.53499149 21.89264861 -15.8776245 19.55346675 -15.2890625 17.19921875 C-14.6299784 15.52953903 -13.96255411 13.8631392 -13.2890625 12.19921875 C-12.49957335 9.86737708 -11.73224636 7.52924154 -10.97265625 5.1875 C-10.2890625 3.19921875 -10.2890625 3.19921875 -9.2890625 1.19921875 C-6.17616506 0.55069845 -3.16157345 0.275154 0 0 Z " fill="#000000" transform="translate(756.2890625,103.80078125)"/>
<path d="M0 0 C3.4326021 0.42907526 5.904047 1.44878138 8.875 3.125 C11.96922146 4.75262951 12.65588133 5.059559 16.25 4.4375 C22.70500339 3.68441627 28.69190661 6.81576943 34.03515625 10.34375 C36.52729475 12.35215646 38.21914508 14.32871761 40 17 C40.125 19.6875 40.125 19.6875 40 22 C38.02 22.99 36.04 23.98 34 25 C34.495 26.216875 34.99 27.43375 35.5 28.6875 C40.76009142 44.87046069 34.35422685 63.60810635 26.97070312 78.20458984 C22.53805549 86.40320421 17.13603939 93.95465354 8 97 C0.64653023 97.66453579 -6.01929913 97.73639398 -12 93 C-17.61973741 87.44426871 -20.95110003 80.37899663 -21.0234375 72.421875 C-20.58459006 67.12319856 -19.31971427 62.13765307 -18 57 C-18.4439209 57.45439453 -18.8878418 57.90878906 -19.34521484 58.37695312 C-21.34994859 60.42313518 -23.36233216 62.4616229 -25.375 64.5 C-26.07367187 65.21542969 -26.77234375 65.93085938 -27.4921875 66.66796875 C-28.49765625 67.68310547 -28.49765625 67.68310547 -29.5234375 68.71875 C-30.450354 69.66137695 -30.450354 69.66137695 -31.39599609 70.62304688 C-33 72 -33 72 -35 72 C-35.495 73.485 -35.495 73.485 -36 75 C-37.35546875 76.3671875 -37.35546875 76.3671875 -39.1875 77.875 C-41.95841501 80.20892483 -44.64590587 82.59249874 -47.2578125 85.1015625 C-63.90049113 101.06509004 -63.90049113 101.06509004 -72.75 102.6875 C-77.80903664 101.61731917 -81.38189849 99.77469197 -84.9375 95.875 C-88.63620855 85.86672981 -84.09483664 75.12627237 -81.1875 65.4375 C-80.72993055 63.87339429 -80.27354185 62.30894265 -79.81835938 60.74414062 C-77.68409673 53.44549533 -75.43767079 46.20362971 -73 39 C-72.62770641 37.34160126 -72.2706431 35.67798725 -72 34 C-72.66 34 -73.32 34 -74 34 C-73.67 31.36 -73.34 28.72 -73 26 C-72.113125 26.020625 -71.22625 26.04125 -70.3125 26.0625 C-67.12726896 26.14977011 -67.12726896 26.14977011 -64.6875 25.3125 C-60.48784986 24.82416859 -56.85374971 26.39161686 -53 28 C-52 29 -52 29 -51.7421875 31.44140625 C-52.0905994 36.25054623 -53.54879461 40.40222295 -55.125 44.9375 C-55.43759766 45.86175781 -55.75019531 46.78601563 -56.07226562 47.73828125 C-58.43033861 54.61718506 -61.09522035 61.31774406 -64.03125 67.96875 C-65.23235911 70.88150716 -65.23235911 70.88150716 -64.50390625 73.48046875 C-63.77422034 77.12889829 -65.03165012 79.41788688 -66.4375 82.8125 C-66.91058594 83.97394531 -67.38367188 85.13539063 -67.87109375 86.33203125 C-68.42990234 87.65267578 -68.42990234 87.65267578 -69 89 C-63.96766183 86.32485727 -59.42422875 83.61982352 -55 80 C-54.34 80 -53.68 80 -53 80 C-53 79.34 -53 78.68 -53 78 C-51.3046875 76.4765625 -51.3046875 76.4765625 -48.875 74.625 C-44.53871617 71.23804385 -40.30159819 67.76760581 -36.125 64.1875 C-35.24255615 63.43218994 -35.24255615 63.43218994 -34.34228516 62.66162109 C-29.69648098 58.65793025 -25.16951066 54.53390498 -20.73095703 50.30151367 C-17.21464608 47 -17.21464608 47 -15 47 C-15 46.34 -15 45.68 -15 45 C-14.40703125 44.47664063 -13.8140625 43.95328125 -13.203125 43.4140625 C-10.17995893 40.10144436 -9.18725585 36.56843063 -7.75 32.375 C-4.44493749 23.28607808 0.11272987 16.78098509 7 10 C6.030625 9.278125 5.06125 8.55625 4.0625 7.8125 C1.70086494 5.86762407 1.06587669 5.2117465 0.125 2.1875 C0.08375 1.465625 0.0425 0.74375 0 0 Z M16 34 C14.00916823 36.4251788 14.00916823 36.4251788 13 39 C12.4121875 40.299375 12.4121875 40.299375 11.8125 41.625 C10.83815616 44.05472604 10.83815616 44.05472604 11 47 C10.34 47 9.68 47 9 47 C8.67 46.01 8.34 45.02 8 44 C7.01 45.98 6.02 47.96 5 50 C5.66 50 6.32 50 7 50 C6.65066406 50.86882812 6.30132813 51.73765625 5.94140625 52.6328125 C5.48636719 53.78523438 5.03132812 54.93765625 4.5625 56.125 C4.11003906 57.26195312 3.65757812 58.39890625 3.19140625 59.5703125 C1.06673659 65.68657466 0.84226797 71.41338836 0.875 77.8125 C0.87113281 78.58787109 0.86726562 79.36324219 0.86328125 80.16210938 C0.51399552 83.88365052 0.51399552 83.88365052 2 87 C6.13901788 87.47757899 8.21798221 87.61035535 11.5625 85 C12.366875 84.01 13.17125 83.02 14 82 C14.48339844 81.43023437 14.96679688 80.86046875 15.46484375 80.2734375 C24.41584098 69.20426536 29.77141997 54.24264546 29.33984375 40.03515625 C28.85207078 35.67883908 27.64907395 32.05397346 26 28 C22.69004492 28 18.53543296 32.06518497 16 34 Z " fill="#000000" transform="translate(825,193)"/>
<path d="M0 0 C3.3 0 6.6 0 10 0 C12.64 5.61 15.28 11.22 18 17 C20.97 11.39 23.94 5.78 27 0 C29.97 0 32.94 0 36 0 C37 1 37 1 37.11352539 3.95922852 C37.10828857 5.25272217 37.10305176 6.54621582 37.09765625 7.87890625 C37.0962413 8.5655687 37.09482635 9.25223114 37.09336853 9.95970154 C37.08775479 12.16067801 37.07520007 14.36155409 37.0625 16.5625 C37.05748676 18.05143083 37.05292355 19.54036324 37.04882812 21.02929688 C37.03778093 24.68623075 37.02050713 28.34310558 37 32 C34.69 32 32.38 32 30 32 C29.505 22.595 29.505 22.595 29 13 C26.57201321 18.21125137 26.57201321 18.21125137 24.18481445 23.44116211 C23.71628052 24.41194702 23.71628052 24.41194702 23.23828125 25.40234375 C22.92930908 26.06741943 22.62033691 26.73249512 22.30200195 27.41772461 C21 29 21 29 16 30 C13.36 25.05 10.72 20.1 8 15 C7.67 20.61 7.34 26.22 7 32 C4.69 32 2.38 32 0 32 C0 21.44 0 10.88 0 0 Z " fill="#000000" transform="translate(360,70)"/>
<path d="M0 0 C20.67391304 1.72282609 20.67391304 1.72282609 26 8 C26 9.32 26 10.64 26 12 C25.38511719 12.32613281 24.77023437 12.65226563 24.13671875 12.98828125 C23.32847656 13.42527344 22.52023437 13.86226562 21.6875 14.3125 C20.88699219 14.74175781 20.08648438 15.17101562 19.26171875 15.61328125 C16.97749619 16.89283846 16.97749619 16.89283846 15.33203125 18.66796875 C14.89246094 19.10753906 14.45289063 19.54710937 14 20 C13.34 20 12.68 20 12 20 C11.74476563 20.85271484 11.74476563 20.85271484 11.484375 21.72265625 C9.84932263 26.9322114 7.86690828 31.35363141 5 36 C4.34 36 3.68 36 3 36 C1.96612815 32.89838446 1.81554032 30.56419778 1.71875 27.30859375 C1.68136719 26.19935547 1.64398437 25.09011719 1.60546875 23.94726562 C1.53503897 21.60351915 1.46472686 19.25976913 1.39453125 16.91601562 C1.35714844 15.80806641 1.31976562 14.70011719 1.28125 13.55859375 C1.25095703 12.54079834 1.22066406 11.52300293 1.18945312 10.47436523 C1.15651678 7.99834582 1.15651678 7.99834582 0 6 C-0.039992 4.00039988 -0.04346799 1.99952758 0 0 Z " fill="#000000" transform="translate(764,172)"/>
<path d="M0 0 C3.0625 -0.6875 3.0625 -0.6875 7 0 C9.17615651 2.72890026 10.83429532 5.53950089 12.51953125 8.59375 C13.00808594 9.3878125 13.49664062 10.181875 14 11 C14.66 11 15.32 11 16 11 C17.98 7.37 19.96 3.74 22 0 C24.31 0 26.62 0 29 0 C29 3.27741547 28.59672265 3.96095016 26.84765625 6.58984375 C21.46498784 14.98412776 17.32083805 21.63279261 18 32 C15.69 32 13.38 32 11 32 C11.04382813 31.2471875 11.08765625 30.494375 11.1328125 29.71875 C11.10896785 19.89475387 7.61395551 14.23784388 2.15234375 6.3359375 C0 3 0 3 0 0 Z " fill="#000000" transform="translate(399,70)"/>
<path d="M0 0 C0 0.66 0 1.32 0 2 C-10.3489074 2.65043638 -20.6265501 3.16494885 -31 3 C-31 2.34 -31 1.68 -31 1 C-20.6510926 0.34956362 -10.3734499 -0.16494885 0 0 Z " fill="#000000" transform="translate(633,410)"/>
<path d="M0 0 C0.5625 1.9375 0.5625 1.9375 1 4 C-0.66342837 5.66342837 -2.7825709 5.36048097 -5.0625 5.5625 C-5.98160156 5.64628906 -6.90070312 5.73007812 -7.84765625 5.81640625 C-8.91306641 5.90728516 -8.91306641 5.90728516 -10 6 C-10 5.34 -10 4.68 -10 4 C-11.65 4 -13.3 4 -15 4 C-15 3.34 -15 2.68 -15 2 C-13.2508503 1.66223316 -11.50063855 1.32996329 -9.75 1 C-8.77546875 0.814375 -7.8009375 0.62875 -6.796875 0.4375 C-4 0 -4 0 0 0 Z " fill="#000000" transform="translate(995,399)"/>
<path d="M0 0 C0.7734375 0.02578125 1.546875 0.0515625 2.34375 0.078125 C3.50390625 0.10132813 3.50390625 0.10132813 4.6875 0.125 C6.84375 0.328125 6.84375 0.328125 9.84375 1.328125 C9.51375 2.318125 9.18375 3.308125 8.84375 4.328125 C1.91375 3.833125 1.91375 3.833125 -5.15625 3.328125 C-2.15625 0.328125 -2.15625 0.328125 0 0 Z " fill="#000000" transform="translate(1014.15625,397.671875)"/>
<path d="M0 0 C0 0.99 0 1.98 0 3 C-2.70879335 4.35439668 -5.00933268 4.06501451 -8 4 C-8 3.01 -8 2.02 -8 1 C-5.10765685 0.17361624 -3.11257569 0 0 0 Z " fill="#000000" transform="translate(969,401)"/>
<path d="M0 0 C0 0.66 0 1.32 0 2 C-2.75078884 2.91692961 -4.35948913 3.10886083 -7.1875 3.0625 C-9.0746875 3.0315625 -9.0746875 3.0315625 -11 3 C-8.89427904 -1.21144191 -4.11694326 -0.07767817 0 0 Z " fill="#000000" transform="translate(275,405)"/>
<path d="M0 0 C0 0.66 0 1.32 0 2 C-3.28696233 2.79953138 -4.71023192 3.09658936 -8 2 C-8 1.34 -8 0.68 -8 0 C-4.71303767 -0.79953138 -3.28976808 -1.09658936 0 0 Z " fill="#000000" transform="translate(295,403)"/>
</svg>
