<?xml version="1.0" encoding="UTF-8"?>
<svg version="1.1" xmlns="http://www.w3.org/2000/svg" width="256" height="138">
<path d="M0 0 C2.5 1.375 2.5 1.375 5 3 C5 3.66 5 4.32 5 5 C5.96679688 4.97679687 6.93359375 4.95359375 7.9296875 4.9296875 C26.25117151 4.67572634 26.25117151 4.67572634 33.125 8.9375 C35 11 35 11 35 14 C34.01 13.67 33.02 13.34 32 13 C32 12.34 32 11.68 32 11 C25.8323971 9.90142276 19.81584877 9.88460896 13.5625 9.9375 C12.54478516 9.94201172 11.52707031 9.94652344 10.47851562 9.95117188 C7.98561491 9.96287563 5.49283926 9.97927152 3 10 C-4.08209008 25.93697043 -4.08209008 25.93697043 -6 43 C-5.01 43.495 -5.01 43.495 -4 44 C-3.67 42.02 -3.34 40.04 -3 38 C-0.03 37.505 -0.03 37.505 3 37 C3.0825 36.34 3.165 35.68 3.25 35 C5.04203776 27.83184896 8.78624665 21.14250223 15 17 C16.2684375 16.7525 16.2684375 16.7525 17.5625 16.5 C20.16854564 16.19851753 20.16854564 16.19851753 22 14 C24.625 14.375 24.625 14.375 27 15 C27 16.32 27 17.64 27 19 C28.134375 19.4125 29.26875 19.825 30.4375 20.25 C34 22 34 22 34.76953125 23.73828125 C35.06221362 26.61053709 34.72402933 29.08973291 34.25 31.9375 C34.09015625 32.95714844 33.9303125 33.97679687 33.765625 35.02734375 C32.95695232 38.16713921 31.86898231 40.36171437 30 43 C27.17116253 44.41441874 25.12623255 44.31900332 22 44 C20.125 42.125 20.125 42.125 19 40 C19 39.34 19 38.68 19 38 C13.06 38.495 13.06 38.495 7 39 C6.773125 40.32 6.54625 41.64 6.3125 43 C4.83038843 50.50792286 2.36229781 57.73277851 0 65 C-1.65 64.67 -3.3 64.34 -5 64 C-6.80058658 58.86575598 -4.90983867 55.00998367 -3.0625 50.1875 C-2.77181641 49.39923828 -2.48113281 48.61097656 -2.18164062 47.79882812 C-1.46550951 45.86175216 -0.73423279 43.93028735 0 42 C-0.33 41.67 -0.66 41.34 -1 41 C-1.144375 41.804375 -1.28875 42.60875 -1.4375 43.4375 C-2 46 -2 46 -3 47 C-5.375 47.3125 -5.375 47.3125 -8 47 C-11.74279765 43.79188773 -11.61390002 39.63319979 -12 35 C-12.51949219 35.6496875 -13.03898437 36.299375 -13.57421875 36.96875 C-14.27160156 37.8040625 -14.96898437 38.639375 -15.6875 39.5 C-16.37199219 40.3353125 -17.05648437 41.170625 -17.76171875 42.03125 C-20 44 -20 44 -22.64453125 44.40625 C-25 44 -25 44 -27 42 C-26.71202618 37.00845374 -25.43490415 33.34048131 -23 29 C-27.05672004 27.84093713 -29.2914539 27.94231703 -33 30 C-34.35607274 32.50568026 -34.35607274 32.50568026 -35.125 35.4375 C-37.03324839 41.77862628 -37.03324839 41.77862628 -40 44 C-43.11811483 44.38976435 -45.11019567 44.50422245 -47.875 42.9375 C-49.70720759 39.78203137 -49.40180041 37.61620371 -49 34 C-45.66425993 22.88086643 -45.66425993 22.88086643 -41 20 C-37.875 20 -37.875 20 -35 21 C-33.6875 23 -33.6875 23 -33 25 C-32.67 25.33 -32.34 25.66 -32 26 C-31.34 26 -30.68 26 -30 26 C-30.99 24.9171875 -30.99 24.9171875 -32 23.8125 C-34.1535853 20.78402067 -34.41176754 19.60296594 -34 16 C-34.804375 16.020625 -35.60875 16.04125 -36.4375 16.0625 C-39 16 -39 16 -40 15 C-40.04080783 13.00041636 -40.04254356 10.99954746 -40 9 C-39.34 9 -38.68 9 -38 9 C-37.34 9.66 -36.68 10.32 -36 11 C-34.82050781 10.55527344 -34.82050781 10.55527344 -33.6171875 10.1015625 C-29.15489956 8.7426368 -24.73327425 8.04604142 -20.125 7.375 C-18.83529297 7.17390625 -18.83529297 7.17390625 -17.51953125 6.96875 C-12.2847183 6.19028009 -7.2913284 5.8649545 -2 6 C-1.34 4.02 -0.68 2.04 0 0 Z M-19 12 C-21.84187672 15.72331442 -23.49965721 19.58118219 -25 24 C-24.20207031 24.57234375 -23.40414062 25.1446875 -22.58203125 25.734375 C-18.89909848 28.96599528 -18.86400662 31.28723663 -18 36 C-11.79207316 31.67784655 -9.37076865 27.35319673 -7.0625 20.25 C-6.60907227 18.95642578 -6.60907227 18.95642578 -6.14648438 17.63671875 C-4.57368406 13.41133542 -4.57368406 13.41133542 -4 9 C-9.26402824 9 -14.20187025 9.81903193 -19 12 Z M-28.1875 15.75 C-28.785625 16.4925 -29.38375 17.235 -30 18 C-29.86358623 20.21858253 -29.86358623 20.21858253 -29 22 C-28.01 22 -27.02 22 -26 22 C-24.23537317 18.91190305 -24 17.76687864 -24 14 C-26.20660487 13.79176832 -26.20660487 13.79176832 -28.1875 15.75 Z M23 19 C21.81522562 20.36293594 20.67730418 21.76676203 19.5625 23.1875 C18.94503906 23.96480469 18.32757813 24.74210937 17.69140625 25.54296875 C15.29830422 29.01932251 14 31.7578585 14 36 C15.65 36 17.3 36 19 36 C19.26554687 35.39671875 19.53109375 34.7934375 19.8046875 34.171875 C20.15789062 33.37265625 20.51109375 32.5734375 20.875 31.75 C21.22304687 30.96109375 21.57109375 30.1721875 21.9296875 29.359375 C22.62300471 27.83104072 23.36315368 26.32276746 24.15625 24.84375 C25.22469292 22.50900437 24.84574898 21.36809715 24 19 C23.67 19 23.34 19 23 19 Z M-40 28.9375 C-42.60153111 32.92109452 -42.79655624 36.33096575 -43 41 C-39.95623744 40.35700039 -39.95623744 40.35700039 -39.05078125 38.328125 C-37.66829057 34.43666975 -36.60642202 31.19816517 -37 27 C-38.34439058 26.88403413 -38.34439058 26.88403413 -40 28.9375 Z M30 27 C26.80346741 31.30837002 25.95591523 35.83805777 25 41 C28.38106271 39.57897364 28.94019248 39.1093034 30.8125 35.6875 C31.97744059 32.07005292 32.17625205 30.52875614 31 27 C30.67 27 30.34 27 30 27 Z M11 31 C10.34 32.65 9.68 34.3 9 36 C9.99 36 10.98 36 12 36 C12 34.35 12 32.7 12 31 C11.67 31 11.34 31 11 31 Z " fill="#000000" transform="translate(133,29)"/>
<path d="M0 0 C0.69480469 -0.020625 1.38960937 -0.04125 2.10546875 -0.0625 C8.53038948 -0.11089865 12.38241962 1.54614363 16.9375 6 C19.79757714 10.24925746 20.59874746 13.28227166 19.78515625 18.37890625 C17.82249371 25.7549256 12.97425901 31.57831036 6.75 35.8984375 C3.85937797 37.38676372 1.15524244 38.22502817 -2 39 C-3.55074219 39.39445312 -3.55074219 39.39445312 -5.1328125 39.796875 C-7.875 40.25 -7.875 40.25 -10.875 39.25 C-12.9834005 45.85632156 -14.64083013 52.42576662 -15.875 59.25 C-17.525 58.92 -19.175 58.59 -20.875 58.25 C-22.29689131 51.78457657 -20.86269293 47.47405568 -18.4375 41.59179688 C-17.58351338 39.45803863 -17.58351338 39.45803863 -16.875 36.25 C-18.11891202 33.9676287 -18.11891202 33.9676287 -19.875 32.25 C-20.0625 29 -20.0625 29 -19.875 26.25 C-19.215 25.92 -18.555 25.59 -17.875 25.25 C-17.545 27.89 -17.215 30.53 -16.875 33.25 C-13.34560537 30.08923103 -11.21161653 26.56391228 -9 22.4375 C-3.14714963 11.97676883 -3.14714963 11.97676883 1.125 8.25 C5 8.3125 5 8.3125 8.125 9.25 C8.62 11.23 8.62 11.23 9.125 13.25 C7.825625 13.9615625 7.825625 13.9615625 6.5 14.6875 C-0.14135496 19.12029117 -3.5619246 27.24157128 -6.875 34.25 C1.24167367 31.78045886 7.62361335 27.78818644 13.125 21.25 C14.94332703 16.86494914 15.75023101 13.82096222 14.125 9.25 C8.65570452 5.18308798 1.81412132 4.78138189 -4.765625 5.6171875 C-17.00216402 8.2118463 -27.89463029 14.77944543 -34.875 25.25 C-35.32639459 27.2992094 -35.32639459 27.2992094 -35.5 29.4375 C-35.62375 30.695625 -35.7475 31.95375 -35.875 33.25 C-38.92714967 32.23261678 -39.76915545 31.44788328 -41.3125 28.5625 C-42.03162445 24.327656 -41.1540896 21.75276188 -38.875 18.25 C-29.73638909 6.68789006 -14.48771092 0.10633182 0 0 Z " fill="#000000" transform="translate(63.875,20.75)"/>
<path d="M0 0 C0.99 0.99 0.99 0.99 2 2 C4.47324834 2.1847306 4.47324834 2.1847306 7.37890625 1.9765625 C8.51255615 1.92483887 9.64620605 1.87311523 10.81420898 1.81982422 C12.66961304 1.72338623 12.66961304 1.72338623 14.5625 1.625 C17.19003051 1.51086805 19.817365 1.40015119 22.4453125 1.296875 C23.47581978 1.2559523 23.47581978 1.2559523 24.52714539 1.21420288 C32.66289019 0.90967912 40.79694195 0.87750405 48.9375 0.875 C50.0061882 0.87152557 50.0061882 0.87152557 51.09646606 0.86798096 C53.13597195 0.86202465 55.17533534 0.86330908 57.21484375 0.8671875 C58.38136475 0.86831543 59.54788574 0.86944336 60.74975586 0.87060547 C63.91866155 0.99676186 66.88122941 1.44899288 70 2 C72.63589958 2.06656312 75.24148596 2.09567411 77.875 2.0625 C78.56335938 2.05798828 79.25171875 2.05347656 79.9609375 2.04882812 C81.64066335 2.03716336 83.32034375 2.01923271 85 2 C85.33 2.66 85.66 3.32 86 4 C90.44768068 3.73754023 94.89508452 3.47088382 99.34228516 3.20043945 C100.85328458 3.10913307 102.36435218 3.01894736 103.87548828 2.92993164 C106.05520478 2.80133268 108.23463934 2.66862383 110.4140625 2.53515625 C112.37786865 2.41732788 112.37786865 2.41732788 114.38134766 2.29711914 C117.97916565 2.05689504 117.97916565 2.05689504 121.41162109 1.40405273 C122.26578613 1.27071533 123.11995117 1.13737793 124 1 C124.33 1.33 124.66 1.66 125 2 C127.44901616 2.10447497 129.86320457 2.1402689 132.3125 2.125 C133.05491943 2.12306641 133.79733887 2.12113281 134.56225586 2.11914062 C143.72050523 2.05091569 152.85886159 1.52937306 162 1 C161.67 1.66 161.34 2.32 161 3 C148.96105477 5.97277937 135.78397359 5.91411657 123.45703125 6.6171875 C122.31743265 6.68297878 121.17783405 6.74877007 120.00370216 6.81655502 C92.20222762 8.37869144 64.42576287 8.31834508 36.59033203 8.14770508 C26.12716194 8.08683464 15.66386055 8.05451256 5.20057106 8.02193832 C1.59546726 8.0081332 -2.00952235 7.98658054 -5.61457825 7.96365356 C-7.80726044 7.95363928 -9.99994331 7.94377373 -12.19262695 7.93408203 C-13.17463577 7.92577362 -14.15664459 7.91746521 -15.16841125 7.90890503 C-20.5542427 7.89155042 -25.66721528 8.25950831 -31 9 C-32.58658719 9.07463051 -34.17533778 9.11836787 -35.76367188 9.11352539 C-36.60393921 9.11344986 -37.44420654 9.11337433 -38.30993652 9.11329651 C-39.18734497 9.10813522 -40.06475342 9.10297394 -40.96875 9.09765625 C-42.35012146 9.09553383 -42.35012146 9.09553383 -43.75939941 9.09336853 C-46.67296734 9.08781407 -49.58645568 9.07527025 -52.5 9.0625 C-54.48697805 9.05747911 -56.47395731 9.05291723 -58.4609375 9.04882812 C-63.30732188 9.0378596 -68.15364749 9.02062683 -73 9 C-63.30604937 3.39527257 -48.61840446 4.51187741 -37.625 4 C-19.4453013 3.55704773 -19.4453013 3.55704773 -1.67822266 0.3125 C-1.12440918 0.209375 -0.5705957 0.10625 0 0 Z " fill="#000000" transform="translate(73,100)"/>
<path d="M0 0 C1.99954746 -0.04254356 4.00041636 -0.04080783 6 0 C6.33 0.33 6.66 0.66 7 1 C6.62852413 6.35986607 5.20589726 9.90426973 2.5 14.5 C-4.78107596 27.42742 -15 46.88397935 -15 62 C-14.01 61.505 -14.01 61.505 -13 61 C-13.33 62.32 -13.66 63.64 -14 65 C-15.98 65.495 -15.98 65.495 -18 66 C-19.5625 64.5625 -19.5625 64.5625 -21 62 C-20.61449676 55.09475774 -19.03705371 48.83750961 -17 42.25 C-16.69602295 41.25790527 -16.3920459 40.26581055 -16.07885742 39.24365234 C-12.7892756 28.83613163 -8.50083502 18.92959184 -4 9 C-3.24204928 7.30012064 -2.48548207 5.59962356 -1.73046875 3.8984375 C-1.39813232 3.14997559 -1.0657959 2.40151367 -0.72338867 1.63037109 C-0.48467041 1.09234863 -0.24595215 0.55432617 0 0 Z " fill="#000000" transform="translate(186,26)"/>
<path d="M0 0 C1.46184058 0.22860058 2.91955419 0.48370392 4.375 0.75 C5.18710938 0.88921875 5.99921875 1.0284375 6.8359375 1.171875 C9 2 9 2 10.3515625 3.953125 C11 6 11 6 10 8 C9.84729357 9.41394844 9.72632547 10.83144348 9.625 12.25 C9.10510662 17.37466331 7.7022917 21.2977083 4 25 C-1.19815668 25.55299539 -1.19815668 25.55299539 -3.8125 23.75 C-5.1134395 21.832826 -5.49524397 20.24130199 -6 18 C-7.31287621 19.14540225 -8.62529021 20.29133433 -9.9375 21.4375 C-10.66839844 22.07558594 -11.39929688 22.71367188 -12.15234375 23.37109375 C-13.12139353 24.22541459 -14.08651175 25.08651175 -15 26 C-17.4375 26.1875 -17.4375 26.1875 -20 26 C-20.66 25.34 -21.32 24.68 -22 24 C-21.828125 21.86328125 -21.828125 21.86328125 -21.25 19.3125 C-21.05148438 18.42433594 -20.85296875 17.53617188 -20.6484375 16.62109375 C-19.84750705 13.38359779 -18.97105183 10.19059887 -18 7 C-14.25 5.875 -14.25 5.875 -12 7 C-12.55399017 10.97026289 -13.49940942 14.29854325 -15 18 C-15 18.99 -15 19.98 -15 21 C-13.05191687 19.30260044 -11.11711646 17.59318213 -9.1875 15.875 C-8.36668945 15.1634375 -8.36668945 15.1634375 -7.52929688 14.4375 C-4.02563213 11.29481889 -1.73059865 8.48133966 0 4 C0 2.68 0 1.36 0 0 Z M4 9 C1.6617948 13.58647943 0.616958 16.76509271 1 22 C1.66 22 2.32 22 3 22 C6.24900602 17.02495953 7.49940808 14.11774896 7 8 C5.7763932 7.9254644 5.7763932 7.9254644 4 9 Z " fill="#000000" transform="translate(206,48)"/>
<path d="M0 0 C0.99 0 1.98 0 3 0 C3.66 0.66 4.32 1.32 5 2 C5.33 1.34 5.66 0.68 6 0 C9.66666667 0 13.33333333 0 17 0 C16.34 2.97 15.68 5.94 15 9 C14.01 9 13.02 9 12 9 C11.67 7.68 11.34 6.36 11 5 C10.34 6.32 9.68 7.64 9 9 C6 9 3 9 0 9 C0 6.03 0 3.06 0 0 Z " fill="#000000" transform="translate(90,17)"/>
<path d="M0 0 C2.97 0.495 2.97 0.495 6 1 C6.33 1.99 6.66 2.98 7 4 C6.360625 4.61875 5.72125 5.2375 5.0625 5.875 C2.96116416 7.82597612 2.96116416 7.82597612 2 10 C1.34 10 0.68 10 0 10 C0 6.7 0 3.4 0 0 Z " fill="#000000" transform="translate(191,43)"/>
<path d="M0 0 C1.32 0 2.64 0 4 0 C4 0.66 4 1.32 4 2 C2.68 2 1.36 2 0 2 C0 1.34 0 0.68 0 0 Z " fill="#000000" transform="translate(245,100)"/>
<path d="M0 0 C0.99 0 1.98 0 3 0 C3 0.66 3 1.32 3 2 C2.01 2 1.02 2 0 2 C0 1.34 0 0.68 0 0 Z " fill="#000000" transform="translate(240,100)"/>
<path d="M0 0 C0.99 0.33 1.98 0.66 3 1 C1.68 1.33 0.36 1.66 -1 2 C-0.67 1.34 -0.34 0.68 0 0 Z " fill="#000000" transform="translate(253,99)"/>
</svg>
